<svg width="267" height="838" viewBox="0 0 267 838" fill="none" xmlns="http://www.w3.org/2000/svg">
<path d="M87.5847 836.862L87.4347 837.121L87.5847 837.208L87.7347 837.121L87.5847 836.862ZM1 786.874H0.7V787.047L0.850004 787.133L1 786.874ZM90.356 835.262L90.506 835.521L90.656 835.435V835.262H90.356ZM90.356 152.592H90.656V152.418L90.506 152.332L90.356 152.592ZM3.77132 102.604L3.92131 102.344L3.77132 102.257L3.62132 102.344L3.77132 102.604ZM1 104.203L0.850003 103.944L0.7 104.03V104.203H1ZM87.8847 836.862V833.662H87.2847V836.862H87.8847ZM87.8847 833.662V154.192H87.2847V833.662H87.8847ZM87.7347 836.602L1.15 786.614L0.850004 787.133L87.4347 837.121L87.7347 836.602ZM87.7347 837.121L90.506 835.521L90.206 835.002L87.4347 836.602L87.7347 837.121ZM1.15 787.133L3.92132 785.533L3.62132 785.014L0.849999 786.614L1.15 787.133ZM87.7347 154.451L90.506 152.851L90.206 152.332L87.4347 153.932L87.7347 154.451ZM90.656 835.262V152.592H90.056V835.262H90.656ZM4.07132 785.273V105.803H3.47132V785.273H4.07132ZM4.07132 105.803V102.604H3.47132V105.803H4.07132ZM1.3 786.874V104.203H0.7V786.874H1.3ZM90.506 835.002L87.7347 833.402L87.4347 833.921L90.206 835.521L90.506 835.002ZM87.7347 833.402L3.92131 785.014L3.62132 785.533L87.4347 833.921L87.7347 833.402ZM90.506 152.332L3.92131 102.344L3.62132 102.863L90.206 152.851L90.506 152.332ZM87.7347 153.932L3.92131 105.544L3.62132 106.063L87.4347 154.451L87.7347 153.932ZM3.92131 105.544L1.15 103.944L0.850003 104.463L3.62132 106.063L3.92131 105.544ZM1.15 104.463L3.92131 102.863L3.62132 102.344L0.850003 103.944L1.15 104.463Z" fill="#3F3F3F"/>
<path d="M263.574 735.258L263.424 735.518L263.574 735.604L263.724 735.518L263.574 735.258ZM176.989 685.27H176.689V685.443L176.839 685.53L176.989 685.27ZM266.345 733.658L266.495 733.918L266.645 733.831V733.658H266.345ZM266.345 50.988H266.645V50.8148L266.495 50.7282L266.345 50.988ZM179.761 1L179.911 0.74019L179.761 0.653592L179.611 0.740191L179.761 1ZM176.989 2.59998L176.839 2.34017L176.689 2.42677V2.59998H176.989ZM263.874 735.258V732.058H263.274V735.258H263.874ZM263.874 732.058V52.5881H263.274V732.058H263.874ZM263.724 734.998L177.139 685.01L176.839 685.53L263.424 735.518L263.724 734.998ZM263.724 735.518L266.495 733.918L266.195 733.398L263.424 734.998L263.724 735.518ZM177.139 685.53L179.911 683.93L179.611 683.41L176.839 685.01L177.139 685.53ZM263.724 52.8479L266.495 51.2478L266.195 50.7282L263.424 52.3283L263.724 52.8479ZM266.645 733.658V50.988H266.045V733.658H266.645ZM180.061 683.67V4.19995H179.461V683.67H180.061ZM180.061 4.19995V1H179.461V4.19995H180.061ZM177.289 685.27V2.59998H176.689V685.27H177.289ZM266.495 733.398L263.724 731.798L263.424 732.318L266.195 733.918L266.495 733.398ZM263.724 731.798L179.911 683.41L179.611 683.93L263.424 732.318L263.724 731.798ZM266.495 50.7282L179.911 0.74019L179.611 1.25981L266.195 51.2478L266.495 50.7282ZM263.724 52.3283L179.911 3.94014L179.611 4.45976L263.424 52.8479L263.724 52.3283ZM179.911 3.94014L177.139 2.34017L176.839 2.85979L179.611 4.45976L179.911 3.94014ZM177.139 2.85979L179.911 1.25981L179.611 0.740191L176.839 2.34017L177.139 2.85979Z" fill="#3F3F3F"/>
<path d="M90.3748 155.788L90.2248 156.048L90.3748 156.135L90.5248 156.048L90.3748 155.788ZM3.77447 105.788L3.47447 105.788L3.47447 105.961L3.62447 106.048L3.77447 105.788ZM263.583 55.7886L263.733 56.0484L263.883 55.9618V55.7886L263.583 55.7886ZM3.77441 102.602L3.62442 102.342L3.47441 102.429L3.47441 102.602L3.77441 102.602ZM176.982 2.60254L177.132 2.34273L176.982 2.25613L176.832 2.34273L176.982 2.60254ZM263.582 52.6025L263.882 52.6025V52.4293L263.732 52.3427L263.582 52.6025ZM90.5248 155.528L3.92447 105.528L3.62447 106.048L90.2248 156.048L90.5248 155.528ZM3.92447 106.048L6.68358 104.455L6.38359 103.935L3.62447 105.528L3.92447 106.048ZM6.68358 104.455L177.132 6.04837L176.832 5.52875L6.38359 103.935L6.68358 104.455ZM90.5248 156.048L263.733 56.0484L263.433 55.5287L90.2248 155.528L90.5248 156.048ZM263.733 55.5287L260.973 53.9357L260.673 54.4553L263.433 56.0484L263.733 55.5287ZM260.973 53.9357L177.132 5.52875L176.832 6.04837L260.673 54.4553L260.973 53.9357ZM90.5247 152.342L6.68359 103.935L6.38358 104.455L90.2247 152.862L90.5247 152.342ZM6.68359 103.935L3.92442 102.342L3.62441 102.862L6.38358 104.455L6.68359 103.935ZM3.92441 102.862L177.132 2.86235L176.832 2.34273L3.62442 102.342L3.92441 102.862ZM90.5247 152.862L260.973 54.4553L260.673 53.9357L90.2247 152.342L90.5247 152.862ZM260.973 54.4553L263.732 52.8623L263.432 52.3427L260.673 53.9357L260.973 54.4553ZM263.732 52.3427L177.132 2.34273L176.832 2.86234L263.432 52.8623L263.732 52.3427ZM4.07447 105.788L4.07441 102.602L3.47441 102.602L3.47447 105.788L4.07447 105.788ZM90.0747 152.602L90.0748 155.788H90.6748L90.6747 152.602H90.0747ZM263.283 52.6025L263.283 55.7886L263.883 55.7886L263.882 52.6025L263.283 52.6025ZM176.682 2.60254L176.682 5.78857L177.282 5.78855L177.282 2.60253L176.682 2.60254Z" fill="#3F3F3F"/>
<path d="M90.3748 240.719L90.2248 240.979L90.3748 241.065L90.5248 240.979L90.3748 240.719ZM3.77447 190.719L3.47447 190.719L3.47447 190.892L3.62447 190.979L3.77447 190.719ZM263.583 140.719L263.733 140.979L263.883 140.892V140.719L263.583 140.719ZM3.77441 187.533L3.62442 187.273L3.47441 187.36L3.47441 187.533L3.77441 187.533ZM176.982 87.5332L177.132 87.2734L176.982 87.1868L176.832 87.2734L176.982 87.5332ZM263.582 137.533L263.882 137.533V137.36L263.732 137.273L263.582 137.533ZM90.5248 240.459L3.92447 190.459L3.62447 190.979L90.2248 240.979L90.5248 240.459ZM3.92447 190.979L6.68358 189.386L6.38359 188.866L3.62447 190.459L3.92447 190.979ZM6.68358 189.386L177.132 90.979L176.832 90.4594L6.38359 188.866L6.68358 189.386ZM90.5248 240.979L263.733 140.979L263.433 140.459L90.2248 240.459L90.5248 240.979ZM263.733 140.459L260.973 138.866L260.673 139.386L263.433 140.979L263.733 140.459ZM260.973 138.866L177.132 90.4594L176.832 90.979L260.673 139.386L260.973 138.866ZM90.5247 237.273L6.68359 188.866L6.38358 189.386L90.2247 237.793L90.5247 237.273ZM6.68359 188.866L3.92442 187.273L3.62441 187.793L6.38358 189.386L6.68359 188.866ZM3.92441 187.793L177.132 87.793L176.832 87.2734L3.62442 187.273L3.92441 187.793ZM90.5247 237.793L260.973 139.386L260.673 138.866L90.2247 237.273L90.5247 237.793ZM260.973 139.386L263.732 137.793L263.432 137.273L260.673 138.866L260.973 139.386ZM263.732 137.273L177.132 87.2734L176.832 87.793L263.432 137.793L263.732 137.273ZM4.07447 190.719L4.07441 187.533L3.47441 187.533L3.47447 190.719L4.07447 190.719ZM90.0747 237.533L90.0748 240.719H90.6748L90.6747 237.533H90.0747ZM263.283 137.533L263.283 140.719L263.883 140.719L263.882 137.533L263.283 137.533ZM176.682 87.5332L176.682 90.7192L177.282 90.7192L177.282 87.5332L176.682 87.5332Z" fill="#3F3F3F"/>
<path d="M90.3748 325.65L90.2248 325.909L90.3748 325.996L90.5248 325.909L90.3748 325.65ZM3.77447 275.65L3.47447 275.65L3.47447 275.823L3.62447 275.909L3.77447 275.65ZM263.583 225.65L263.733 225.91L263.883 225.823V225.65L263.583 225.65ZM3.77441 272.464L3.62442 272.204L3.47441 272.29L3.47441 272.464L3.77441 272.464ZM176.982 172.464L177.132 172.204L176.982 172.117L176.832 172.204L176.982 172.464ZM263.582 222.464L263.882 222.464V222.291L263.732 222.204L263.582 222.464ZM90.5248 325.39L3.92447 275.39L3.62447 275.909L90.2248 325.909L90.5248 325.39ZM3.92447 275.909L6.68358 274.316L6.38359 273.797L3.62447 275.39L3.92447 275.909ZM6.68358 274.316L177.132 175.91L176.832 175.39L6.38359 273.797L6.68358 274.316ZM90.5248 325.909L263.733 225.91L263.433 225.39L90.2248 325.39L90.5248 325.909ZM263.733 225.39L260.973 223.797L260.673 224.317L263.433 225.91L263.733 225.39ZM260.973 223.797L177.132 175.39L176.832 175.91L260.673 224.317L260.973 223.797ZM90.5247 322.204L6.68359 273.797L6.38358 274.316L90.2247 322.723L90.5247 322.204ZM6.68359 273.797L3.92442 272.204L3.62441 272.723L6.38358 274.316L6.68359 273.797ZM3.92441 272.723L177.132 172.724L176.832 172.204L3.62442 272.204L3.92441 272.723ZM90.5247 322.723L260.973 224.317L260.673 223.797L90.2247 322.204L90.5247 322.723ZM260.973 224.317L263.732 222.724L263.432 222.204L260.673 223.797L260.973 224.317ZM263.732 222.204L177.132 172.204L176.832 172.724L263.432 222.724L263.732 222.204ZM4.07447 275.65L4.07441 272.464L3.47441 272.464L3.47447 275.65L4.07447 275.65ZM90.0747 322.464L90.0748 325.65H90.6748L90.6747 322.464H90.0747ZM263.283 222.464L263.283 225.65L263.883 225.65L263.882 222.464L263.283 222.464ZM176.682 172.464L176.682 175.65L177.282 175.65L177.282 172.464L176.682 172.464Z" fill="#3F3F3F"/>
<path d="M90.3748 410.58L90.2248 410.84L90.3748 410.927L90.5248 410.84L90.3748 410.58ZM3.77447 360.58L3.47447 360.58L3.47447 360.753L3.62447 360.84L3.77447 360.58ZM263.583 310.581L263.733 310.84L263.883 310.754V310.581L263.583 310.581ZM3.77441 357.394L3.62442 357.134L3.47441 357.221L3.47441 357.394L3.77441 357.394ZM176.982 257.395L177.132 257.135L176.982 257.048L176.832 257.135L176.982 257.395ZM263.582 307.395L263.882 307.395V307.221L263.732 307.135L263.582 307.395ZM90.5248 410.32L3.92447 360.32L3.62447 360.84L90.2248 410.84L90.5248 410.32ZM3.92447 360.84L6.68358 359.247L6.38359 358.727L3.62447 360.32L3.92447 360.84ZM6.68358 359.247L177.132 260.84L176.832 260.321L6.38359 358.727L6.68358 359.247ZM90.5248 410.84L263.733 310.84L263.433 310.321L90.2248 410.32L90.5248 410.84ZM263.733 310.321L260.973 308.728L260.673 309.247L263.433 310.84L263.733 310.321ZM260.973 308.728L177.132 260.321L176.832 260.84L260.673 309.247L260.973 308.728ZM90.5247 407.134L6.68359 358.727L6.38358 359.247L90.2247 407.654L90.5247 407.134ZM6.68359 358.727L3.92442 357.134L3.62441 357.654L6.38358 359.247L6.68359 358.727ZM3.92441 357.654L177.132 257.654L176.832 257.135L3.62442 357.134L3.92441 357.654ZM90.5247 407.654L260.973 309.247L260.673 308.728L90.2247 407.134L90.5247 407.654ZM260.973 309.247L263.732 307.654L263.432 307.135L260.673 308.728L260.973 309.247ZM263.732 307.135L177.132 257.135L176.832 257.654L263.432 307.654L263.732 307.135ZM4.07447 360.58L4.07441 357.394L3.47441 357.394L3.47447 360.58L4.07447 360.58ZM90.0747 407.394L90.0748 410.58H90.6748L90.6747 407.394H90.0747ZM263.283 307.395L263.283 310.581L263.883 310.581L263.882 307.395L263.283 307.395ZM176.682 257.395L176.682 260.581L177.282 260.581L177.282 257.395L176.682 257.395Z" fill="#3F3F3F"/>
<path d="M90.3748 495.511L90.2248 495.771L90.3748 495.857L90.5248 495.771L90.3748 495.511ZM3.77447 445.511L3.47447 445.511L3.47447 445.684L3.62447 445.771L3.77447 445.511ZM263.583 395.511L263.733 395.771L263.883 395.684V395.511L263.583 395.511ZM3.77441 442.325L3.62442 442.065L3.47441 442.152L3.47441 442.325L3.77441 442.325ZM176.982 342.325L177.132 342.065L176.982 341.979L176.832 342.065L176.982 342.325ZM263.582 392.325L263.882 392.325V392.152L263.732 392.065L263.582 392.325ZM90.5248 495.251L3.92447 445.251L3.62447 445.771L90.2248 495.771L90.5248 495.251ZM3.92447 445.771L6.68358 444.178L6.38359 443.658L3.62447 445.251L3.92447 445.771ZM6.68358 444.178L177.132 345.771L176.832 345.251L6.38359 443.658L6.68358 444.178ZM90.5248 495.771L263.733 395.771L263.433 395.251L90.2248 495.251L90.5248 495.771ZM263.733 395.251L260.973 393.658L260.673 394.178L263.433 395.771L263.733 395.251ZM260.973 393.658L177.132 345.251L176.832 345.771L260.673 394.178L260.973 393.658ZM90.5247 492.065L6.68359 443.658L6.38358 444.178L90.2247 492.585L90.5247 492.065ZM6.68359 443.658L3.92442 442.065L3.62441 442.585L6.38358 444.178L6.68359 443.658ZM3.92441 442.585L177.132 342.585L176.832 342.065L3.62442 442.065L3.92441 442.585ZM90.5247 492.585L260.973 394.178L260.673 393.658L90.2247 492.065L90.5247 492.585ZM260.973 394.178L263.732 392.585L263.432 392.065L260.673 393.658L260.973 394.178ZM263.732 392.065L177.132 342.065L176.832 342.585L263.432 392.585L263.732 392.065ZM4.07447 445.511L4.07441 442.325L3.47441 442.325L3.47447 445.511L4.07447 445.511ZM90.0747 492.325L90.0748 495.511H90.6748L90.6747 492.325H90.0747ZM263.283 392.325L263.283 395.511L263.883 395.511L263.882 392.325L263.283 392.325ZM176.682 342.325L176.682 345.511L177.282 345.511L177.282 342.325L176.682 342.325Z" fill="#3F3F3F"/>
<path d="M90.3748 580.442L90.2248 580.701L90.3748 580.788L90.5248 580.701L90.3748 580.442ZM3.77447 530.442L3.47447 530.442L3.47447 530.615L3.62447 530.701L3.77447 530.442ZM263.583 480.442L263.733 480.702L263.883 480.615V480.442L263.583 480.442ZM3.77441 527.256L3.62442 526.996L3.47441 527.082L3.47441 527.256L3.77441 527.256ZM176.982 427.256L177.132 426.996L176.982 426.909L176.832 426.996L176.982 427.256ZM263.582 477.256L263.882 477.256V477.083L263.732 476.996L263.582 477.256ZM90.5248 580.182L3.92447 530.182L3.62447 530.701L90.2248 580.701L90.5248 580.182ZM3.92447 530.701L6.68358 529.108L6.38359 528.589L3.62447 530.182L3.92447 530.701ZM6.68358 529.108L177.132 430.702L176.832 430.182L6.38359 528.589L6.68358 529.108ZM90.5248 580.701L263.733 480.702L263.433 480.182L90.2248 580.182L90.5248 580.701ZM263.733 480.182L260.973 478.589L260.673 479.109L263.433 480.702L263.733 480.182ZM260.973 478.589L177.132 430.182L176.832 430.702L260.673 479.109L260.973 478.589ZM90.5247 576.996L6.68359 528.589L6.38358 529.108L90.2247 577.515L90.5247 576.996ZM6.68359 528.589L3.92442 526.996L3.62441 527.515L6.38358 529.108L6.68359 528.589ZM3.92441 527.515L177.132 427.516L176.832 426.996L3.62442 526.996L3.92441 527.515ZM90.5247 577.515L260.973 479.109L260.673 478.589L90.2247 576.996L90.5247 577.515ZM260.973 479.109L263.732 477.516L263.432 476.996L260.673 478.589L260.973 479.109ZM263.732 476.996L177.132 426.996L176.832 427.516L263.432 477.516L263.732 476.996ZM4.07447 530.441L4.07441 527.256L3.47441 527.256L3.47447 530.442L4.07447 530.441ZM90.0747 577.256L90.0748 580.442H90.6748L90.6747 577.256H90.0747ZM263.283 477.256L263.283 480.442L263.883 480.442L263.882 477.256L263.283 477.256ZM176.682 427.256L176.682 430.442L177.282 430.442L177.282 427.256L176.682 427.256Z" fill="#3F3F3F"/>
<path d="M90.3748 665.372L90.2248 665.632L90.3748 665.719L90.5248 665.632L90.3748 665.372ZM3.77447 615.372L3.47447 615.372L3.47447 615.545L3.62447 615.632L3.77447 615.372ZM263.583 565.373L263.733 565.632L263.883 565.546V565.373L263.583 565.373ZM3.77441 612.186L3.62442 611.926L3.47441 612.013L3.47441 612.186L3.77441 612.186ZM176.982 512.187L177.132 511.927L176.982 511.84L176.832 511.927L176.982 512.187ZM263.582 562.187L263.882 562.187V562.013L263.732 561.927L263.582 562.187ZM90.5248 665.112L3.92447 615.112L3.62447 615.632L90.2248 665.632L90.5248 665.112ZM3.92447 615.632L6.68358 614.039L6.38359 613.519L3.62447 615.112L3.92447 615.632ZM6.68358 614.039L177.132 515.632L176.832 515.113L6.38359 613.519L6.68358 614.039ZM90.5248 665.632L263.733 565.632L263.433 565.113L90.2248 665.112L90.5248 665.632ZM263.733 565.113L260.973 563.52L260.673 564.039L263.433 565.632L263.733 565.113ZM260.973 563.52L177.132 515.113L176.832 515.632L260.673 564.039L260.973 563.52ZM90.5247 661.926L6.68359 613.519L6.38358 614.039L90.2247 662.446L90.5247 661.926ZM6.68359 613.519L3.92442 611.926L3.62441 612.446L6.38358 614.039L6.68359 613.519ZM3.92441 612.446L177.132 512.446L176.832 511.927L3.62442 611.926L3.92441 612.446ZM90.5247 662.446L260.973 564.039L260.673 563.52L90.2247 661.926L90.5247 662.446ZM260.973 564.039L263.732 562.446L263.432 561.927L260.673 563.52L260.973 564.039ZM263.732 561.927L177.132 511.927L176.832 512.446L263.432 562.446L263.732 561.927ZM4.07447 615.372L4.07441 612.186L3.47441 612.186L3.47447 615.372L4.07447 615.372ZM90.0747 662.186L90.0748 665.372H90.6748L90.6747 662.186H90.0747ZM263.283 562.187L263.283 565.373L263.883 565.373L263.882 562.187L263.283 562.187ZM176.682 512.187L176.682 515.373L177.282 515.373L177.282 512.187L176.682 512.187Z" fill="#3F3F3F"/>
<path d="M90.3748 750.303L90.2248 750.563L90.3748 750.649L90.5248 750.563L90.3748 750.303ZM3.77447 700.303L3.47447 700.303L3.47447 700.476L3.62447 700.563L3.77447 700.303ZM263.583 650.303L263.733 650.563L263.883 650.476V650.303L263.583 650.303ZM3.77441 697.117L3.62442 696.857L3.47441 696.944L3.47441 697.117L3.77441 697.117ZM176.982 597.117L177.132 596.857L176.982 596.771L176.832 596.857L176.982 597.117ZM263.582 647.117L263.882 647.117V646.944L263.732 646.857L263.582 647.117ZM90.5248 750.043L3.92447 700.043L3.62447 700.563L90.2248 750.563L90.5248 750.043ZM3.92447 700.563L6.68358 698.97L6.38359 698.45L3.62447 700.043L3.92447 700.563ZM6.68358 698.97L177.132 600.563L176.832 600.043L6.38359 698.45L6.68358 698.97ZM90.5248 750.563L263.733 650.563L263.433 650.043L90.2248 750.043L90.5248 750.563ZM263.733 650.043L260.973 648.45L260.673 648.97L263.433 650.563L263.733 650.043ZM260.973 648.45L177.132 600.043L176.832 600.563L260.673 648.97L260.973 648.45ZM90.5247 746.857L6.68359 698.45L6.38358 698.97L90.2247 747.377L90.5247 746.857ZM6.68359 698.45L3.92442 696.857L3.62441 697.377L6.38358 698.97L6.68359 698.45ZM3.92441 697.377L177.132 597.377L176.832 596.857L3.62442 696.857L3.92441 697.377ZM90.5247 747.377L260.973 648.97L260.673 648.45L90.2247 746.857L90.5247 747.377ZM260.973 648.97L263.732 647.377L263.432 646.857L260.673 648.45L260.973 648.97ZM263.732 646.857L177.132 596.857L176.832 597.377L263.432 647.377L263.732 646.857ZM4.07447 700.303L4.07441 697.117L3.47441 697.117L3.47447 700.303L4.07447 700.303ZM90.0747 747.117L90.0748 750.303H90.6748L90.6747 747.117H90.0747ZM263.283 647.117L263.283 650.303L263.883 650.303L263.882 647.117L263.283 647.117ZM176.682 597.117L176.682 600.303L177.282 600.303L177.282 597.117L176.682 597.117Z" fill="#3F3F3F"/>
<path d="M90.3748 835.234L90.2248 835.493L90.3748 835.58L90.5248 835.493L90.3748 835.234ZM3.77447 785.233L3.47447 785.234L3.47447 785.407L3.62447 785.493L3.77447 785.233ZM263.583 735.234L263.733 735.494L263.883 735.407V735.234L263.583 735.234ZM3.77441 782.048L3.62442 781.788L3.47441 781.874L3.47441 782.048L3.77441 782.048ZM176.982 682.048L177.132 681.788L176.982 681.701L176.832 681.788L176.982 682.048ZM263.582 732.048L263.882 732.048V731.875L263.732 731.788L263.582 732.048ZM90.5248 834.974L3.92447 784.974L3.62447 785.493L90.2248 835.493L90.5248 834.974ZM3.92447 785.493L6.68358 783.9L6.38359 783.381L3.62447 784.974L3.92447 785.493ZM6.68358 783.9L177.132 685.494L176.832 684.974L6.38359 783.381L6.68358 783.9ZM90.5248 835.493L263.733 735.494L263.433 734.974L90.2248 834.974L90.5248 835.493ZM263.733 734.974L260.973 733.381L260.673 733.901L263.433 735.494L263.733 734.974ZM260.973 733.381L177.132 684.974L176.832 685.494L260.673 733.901L260.973 733.381ZM90.5247 831.788L6.68359 783.381L6.38358 783.9L90.2247 832.307L90.5247 831.788ZM6.68359 783.381L3.92442 781.788L3.62441 782.307L6.38358 783.9L6.68359 783.381ZM3.92441 782.307L177.132 682.308L176.832 681.788L3.62442 781.788L3.92441 782.307ZM90.5247 832.307L260.973 733.901L260.673 733.381L90.2247 831.788L90.5247 832.307ZM260.973 733.901L263.732 732.308L263.432 731.788L260.673 733.381L260.973 733.901ZM263.732 731.788L177.132 681.788L176.832 682.308L263.432 732.308L263.732 731.788ZM4.07447 785.233L4.07441 782.047L3.47441 782.048L3.47447 785.234L4.07447 785.233ZM90.0747 832.048L90.0748 835.234H90.6748L90.6747 832.048H90.0747ZM263.283 732.048L263.283 735.234L263.883 735.234L263.882 732.048L263.283 732.048ZM176.682 682.048L176.682 685.234L177.282 685.234L177.282 682.048L176.682 682.048Z" fill="#3F3F3F"/>
</svg>
