<svg width="268" height="666" viewBox="0 0 268 666" fill="none" xmlns="http://www.w3.org/2000/svg">
<path d="M176.997 513.797L263.564 563.796V307.961L176.997 257.963V513.797Z" fill="#939393"/>
<path d="M263.564 563.796L266.335 562.196V306.361L263.564 307.961V563.796Z" fill="#D4D4D4"/>
<path d="M263.564 307.961L266.335 306.361L179.768 256.363L176.997 257.963L263.564 307.961Z" fill="#CECECE"/>
<path d="M263.564 563.796L263.414 564.056L263.564 564.142L263.714 564.056L263.564 563.796ZM176.997 513.797H176.697V513.97L176.847 514.057L176.997 513.797ZM266.335 562.196L266.485 562.456L266.635 562.369V562.196H266.335ZM266.335 306.361H266.635V306.188L266.485 306.102L266.335 306.361ZM179.768 256.363L179.918 256.103L179.768 256.016L179.618 256.103L179.768 256.363ZM176.997 257.963L176.847 257.703L176.697 257.79V257.963H176.997ZM263.714 563.536L177.147 513.537L176.847 514.057L263.414 564.056L263.714 563.536ZM263.714 564.056L266.485 562.456L266.185 561.936L263.414 563.536L263.714 564.056ZM263.714 308.221L266.485 306.621L266.185 306.102L263.414 307.702L263.714 308.221ZM266.635 562.196V306.361H266.035V562.196H266.635ZM177.297 513.797V257.963H176.697V513.797H177.297ZM266.485 306.102L179.918 256.103L179.618 256.623L266.185 306.621L266.485 306.102ZM177.147 258.223L179.918 256.623L179.618 256.103L176.847 257.703L177.147 258.223ZM263.864 563.796V307.961H263.264V563.796H263.864ZM263.714 307.702L177.147 257.703L176.847 258.223L263.414 308.221L263.714 307.702Z" fill="#3F3F3F"/>
<path d="M176.988 510.633L3.78027 610.633L90.3806 660.633L263.588 560.633L176.988 510.633Z" fill="#A2A2A2"/>
<path d="M90.3807 663.819L263.588 563.819L263.588 560.633L90.3806 660.633L90.3807 663.819Z" fill="#D4D4D4"/>
<path d="M3.78033 613.819L90.3807 663.819L90.3806 660.633L3.78027 610.633L3.78033 613.819Z" fill="#B8B8B8"/>
<path d="M90.3807 663.819L90.2307 664.079L90.3807 664.165L90.5307 664.079L90.3807 663.819ZM3.78033 613.819L3.48033 613.819L3.48033 613.992L3.63033 614.079L3.78033 613.819ZM263.588 563.819L263.738 564.079L263.888 563.993V563.819L263.588 563.819ZM3.78027 610.633L3.63028 610.373L3.48027 610.46L3.48027 610.633L3.78027 610.633ZM176.988 510.633L177.138 510.373L176.988 510.287L176.838 510.373L176.988 510.633ZM263.588 560.633L263.888 560.633V560.46L263.738 560.373L263.588 560.633ZM90.5307 663.559L3.93033 613.559L3.63033 614.079L90.2307 664.079L90.5307 663.559ZM90.5307 664.079L263.738 564.079L263.438 563.56L90.2307 663.559L90.5307 664.079ZM3.93027 610.893L177.138 510.893L176.838 510.373L3.63028 610.373L3.93027 610.893ZM263.738 560.373L177.138 510.373L176.838 510.893L263.438 560.893L263.738 560.373ZM4.08033 613.819L4.08027 610.633L3.48027 610.633L3.48033 613.819L4.08033 613.819ZM90.0806 660.633L90.0807 663.819H90.6807L90.6806 660.633H90.0806ZM263.288 560.633L263.288 563.819L263.888 563.819L263.888 560.633L263.288 560.633ZM90.5306 660.893L263.738 560.893L263.438 560.373L90.2306 660.373L90.5306 660.893ZM90.5306 660.373L3.93028 610.373L3.63027 610.893L90.2306 660.893L90.5306 660.373Z" fill="#3F3F3F"/>
<path d="M176.988 258L3.78027 358L90.3806 408L263.588 308L176.988 258Z" fill="#CECECE"/>
<path d="M90.3807 411.186L263.588 311.186L263.588 308L90.3806 408L90.3807 411.186Z" fill="#D4D4D4"/>
<path d="M3.78033 361.186L90.3807 411.186L90.3806 408L3.78027 358L3.78033 361.186Z" fill="#B8B8B8"/>
<path d="M90.3807 411.186L90.2307 411.446L90.3807 411.532L90.5307 411.446L90.3807 411.186ZM3.78033 361.186L3.48033 361.186L3.48033 361.359L3.63033 361.445L3.78033 361.186ZM263.588 311.186L263.738 311.446L263.888 311.359V311.186L263.588 311.186ZM3.78027 358L3.63028 357.74L3.48027 357.826L3.48027 358L3.78027 358ZM176.988 258L177.138 257.74L176.988 257.654L176.838 257.74L176.988 258ZM263.588 308L263.888 308V307.827L263.738 307.74L263.588 308ZM90.5307 410.926L3.93033 360.926L3.63033 361.445L90.2307 411.446L90.5307 410.926ZM90.5307 411.446L263.738 311.446L263.438 310.926L90.2307 410.926L90.5307 411.446ZM3.93027 358.259L177.138 258.26L176.838 257.74L3.63028 357.74L3.93027 358.259ZM263.738 307.74L177.138 257.74L176.838 258.26L263.438 308.26L263.738 307.74ZM4.08033 361.186L4.08027 358L3.48027 358L3.48033 361.186L4.08033 361.186ZM90.0806 408L90.0807 411.186H90.6807L90.6806 408H90.0806ZM263.288 308L263.288 311.186L263.888 311.186L263.888 308L263.288 308ZM90.5306 408.26L263.738 308.26L263.438 307.74L90.2306 407.74L90.5306 408.26ZM90.5306 407.74L3.93028 357.74L3.63027 358.259L90.2306 408.26L90.5306 407.74Z" fill="#3F3F3F"/>
<path d="M90.3807 579.226L90.2807 579.399L90.3807 579.457L90.4807 579.399L90.3807 579.226ZM3.78033 529.226H3.58033L3.58033 529.342L3.68033 529.399L3.78033 529.226ZM263.588 479.227L263.688 479.4L263.788 479.342V479.227L263.588 479.227ZM3.78027 526.04L3.68027 525.867L3.58027 525.925L3.58027 526.04H3.78027ZM176.988 426.041L177.088 425.867L176.988 425.81L176.888 425.867L176.988 426.041ZM263.588 476.041L263.788 476.041V475.925L263.688 475.867L263.588 476.041ZM90.4807 579.053L3.88033 529.053L3.68033 529.399L90.2807 579.399L90.4807 579.053ZM3.88033 529.399L6.63944 527.806L6.43945 527.46L3.68033 529.053L3.88033 529.399ZM6.63944 527.806L177.088 429.4L176.888 429.053L6.43945 527.46L6.63944 527.806ZM90.4807 579.399L263.688 479.4L263.488 479.053L90.2807 579.053L90.4807 579.399ZM263.688 479.053L260.929 477.46L260.729 477.807L263.488 479.4L263.688 479.053ZM260.929 477.46L177.088 429.053L176.888 429.4L260.729 477.807L260.929 477.46ZM90.4806 575.867L6.63945 527.46L6.43944 527.806L90.2806 576.213L90.4806 575.867ZM6.63945 527.46L3.88027 525.867L3.68027 526.213L6.43944 527.806L6.63945 527.46ZM3.88027 526.213L177.088 426.214L176.888 425.867L3.68027 525.867L3.88027 526.213ZM90.4806 576.213L260.929 477.807L260.729 477.46L90.2806 575.867L90.4806 576.213ZM260.929 477.807L263.688 476.214L263.488 475.867L260.729 477.46L260.929 477.807ZM263.688 475.867L177.088 425.867L176.888 426.214L263.488 476.214L263.688 475.867ZM3.98033 529.226L3.98027 526.04H3.58027L3.58033 529.226H3.98033ZM90.1806 576.04L90.1807 579.226H90.5807L90.5806 576.04H90.1806ZM263.388 476.041L263.388 479.227L263.788 479.227L263.788 476.041L263.388 476.041ZM176.788 426.041L176.788 429.227L177.188 429.227L177.188 426.041L176.788 426.041Z" fill="#3F3F3F"/>
<path d="M90.3807 494.817L90.2807 494.99L90.3807 495.048L90.4807 494.99L90.3807 494.817ZM3.78033 444.817H3.58033L3.58033 444.932L3.68033 444.99L3.78033 444.817ZM263.588 394.817L263.688 394.99L263.788 394.932V394.817L263.588 394.817ZM3.78027 441.631L3.68027 441.457L3.58027 441.515L3.58027 441.631H3.78027ZM176.988 341.631L177.088 341.458L176.988 341.4L176.888 341.458L176.988 341.631ZM263.588 391.631L263.788 391.631V391.515L263.688 391.458L263.588 391.631ZM90.4807 494.643L3.88033 444.643L3.68033 444.99L90.2807 494.99L90.4807 494.643ZM3.88033 444.99L6.63944 443.397L6.43945 443.05L3.68033 444.643L3.88033 444.99ZM6.63944 443.397L177.088 344.99L176.888 344.644L6.43945 443.05L6.63944 443.397ZM90.4807 494.99L263.688 394.99L263.488 394.644L90.2807 494.643L90.4807 494.99ZM263.688 394.644L260.929 393.051L260.729 393.397L263.488 394.99L263.688 394.644ZM260.929 393.051L177.088 344.644L176.888 344.99L260.729 393.397L260.929 393.051ZM90.4806 491.457L6.63945 443.05L6.43944 443.397L90.2806 491.804L90.4806 491.457ZM6.63945 443.05L3.88027 441.457L3.68027 441.804L6.43944 443.397L6.63945 443.05ZM3.88027 441.804L177.088 341.804L176.888 341.458L3.68027 441.457L3.88027 441.804ZM90.4806 491.804L260.929 393.397L260.729 393.051L90.2806 491.457L90.4806 491.804ZM260.929 393.397L263.688 391.804L263.488 391.458L260.729 393.051L260.929 393.397ZM263.688 391.458L177.088 341.458L176.888 341.804L263.488 391.804L263.688 391.458ZM3.98033 444.817L3.98027 441.631H3.58027L3.58033 444.817H3.98033ZM90.1806 491.631L90.1807 494.817H90.5807L90.5806 491.631H90.1806ZM263.388 391.631L263.388 394.817L263.788 394.817L263.788 391.631L263.388 391.631ZM176.788 341.631L176.788 344.817L177.188 344.817L177.188 341.631L176.788 341.631Z" fill="#3F3F3F"/>
<path d="M1.05273 615.441L87.6197 665.44V409.605L1.05273 359.607V615.441Z" fill="#B8B8B8"/>
<path d="M87.6197 665.44L90.3911 663.84V408.005L87.6197 409.605V665.44Z" fill="#D4D4D4"/>
<path d="M87.6197 409.605L90.3911 408.005L3.82405 358.007L1.05273 359.607L87.6197 409.605Z" fill="#CECECE"/>
<path d="M87.6197 665.44L87.4697 665.7L87.6197 665.786L87.7697 665.7L87.6197 665.44ZM1.05273 615.441H0.752734V615.614L0.902691 615.701L1.05273 615.441ZM90.3911 663.84L90.5411 664.1L90.6911 664.013V663.84H90.3911ZM90.3911 408.005H90.6911V407.832L90.5411 407.746L90.3911 408.005ZM3.82405 358.007L3.97409 357.747L3.82408 357.66L3.67405 357.747L3.82405 358.007ZM1.05273 359.607L0.902738 359.347L0.752734 359.434V359.607H1.05273ZM87.7698 665.18L1.20278 615.181L0.902691 615.701L87.4697 665.7L87.7698 665.18ZM87.7697 665.7L90.5411 664.1L90.2411 663.58L87.4697 665.18L87.7697 665.7ZM87.7697 409.865L90.5411 408.265L90.2411 407.746L87.4697 409.346L87.7697 409.865ZM90.6911 663.84V408.005H90.0911V663.84H90.6911ZM1.35273 615.441V359.607H0.752734V615.441H1.35273ZM90.5411 407.746L3.97409 357.747L3.67401 358.267L90.241 408.265L90.5411 407.746ZM1.20273 359.867L3.97405 358.267L3.67405 357.747L0.902738 359.347L1.20273 359.867ZM87.9197 665.44V409.605H87.3197V665.44H87.9197ZM87.7698 409.346L1.20278 359.347L0.902691 359.867L87.4697 409.865L87.7698 409.346Z" fill="#3F3F3F"/>
<path d="M176.997 257.876L263.564 307.875V52.0405L176.997 2.04187V257.876Z" fill="#939393"/>
<path d="M263.564 307.875L266.335 306.275V50.4405L263.564 52.0405V307.875Z" fill="#D4D4D4"/>
<path d="M263.564 52.0405L266.335 50.4405L179.768 0.441895L176.997 2.04187L263.564 52.0405Z" fill="#CECECE"/>
<path d="M263.564 307.875L263.414 308.135L263.564 308.221L263.714 308.135L263.564 307.875ZM176.997 257.876H176.697V258.049L176.847 258.136L176.997 257.876ZM266.335 306.275L266.485 306.535L266.635 306.448V306.275H266.335ZM266.335 50.4405H266.635V50.2673L266.485 50.1807L266.335 50.4405ZM179.768 0.441895L179.918 0.182112L179.768 0.095469L179.618 0.182085L179.768 0.441895ZM176.997 2.04187L176.847 1.78206L176.697 1.86866V2.04187H176.997ZM263.714 307.615L177.147 257.617L176.847 258.136L263.414 308.135L263.714 307.615ZM263.714 308.135L266.485 306.535L266.185 306.015L263.414 307.615L263.714 308.135ZM263.714 52.3004L266.485 50.7003L266.185 50.1807L263.414 51.7807L263.714 52.3004ZM266.635 306.275V50.4405H266.035V306.275H266.635ZM177.297 257.876V2.04187H176.697V257.876H177.297ZM266.485 50.1807L179.918 0.182112L179.618 0.701677L266.185 50.7003L266.485 50.1807ZM177.147 2.30168L179.918 0.701704L179.618 0.182085L176.847 1.78206L177.147 2.30168ZM263.864 307.875V52.0405H263.264V307.875H263.864ZM263.714 51.7808L177.147 1.78209L176.847 2.30165L263.414 52.3003L263.714 51.7808Z" fill="#3F3F3F"/>
<path d="M176.988 254.712L3.78027 354.712L90.3806 404.712L263.588 304.712L176.988 254.712Z" fill="#A2A2A2"/>
<path d="M90.3807 407.898L263.588 307.898L263.588 304.712L90.3806 404.712L90.3807 407.898Z" fill="#D4D4D4"/>
<path d="M3.78033 357.898L90.3807 407.898L90.3806 404.712L3.78027 354.712L3.78033 357.898Z" fill="#B8B8B8"/>
<path d="M90.3807 407.898L90.2307 408.158L90.3807 408.244L90.5307 408.158L90.3807 407.898ZM3.78033 357.898L3.48033 357.898L3.48033 358.071L3.63033 358.158L3.78033 357.898ZM263.588 307.898L263.738 308.158L263.888 308.071V307.898L263.588 307.898ZM3.78027 354.712L3.63028 354.452L3.48027 354.539L3.48027 354.712L3.78027 354.712ZM176.988 254.712L177.138 254.452L176.988 254.366L176.838 254.452L176.988 254.712ZM263.588 304.712L263.888 304.712V304.539L263.738 304.452L263.588 304.712ZM90.5307 407.638L3.93033 357.638L3.63033 358.158L90.2307 408.158L90.5307 407.638ZM90.5307 408.158L263.738 308.158L263.438 307.638L90.2307 407.638L90.5307 408.158ZM3.93027 354.972L177.138 254.972L176.838 254.452L3.63028 354.452L3.93027 354.972ZM263.738 304.452L177.138 254.452L176.838 254.972L263.438 304.972L263.738 304.452ZM4.08033 357.898L4.08027 354.712L3.48027 354.712L3.48033 357.898L4.08033 357.898ZM90.0806 404.712L90.0807 407.898H90.6807L90.6806 404.712H90.0806ZM263.288 304.712L263.288 307.898L263.888 307.898L263.888 304.712L263.288 304.712ZM90.5306 404.972L263.738 304.972L263.438 304.452L90.2306 404.452L90.5306 404.972ZM90.5306 404.452L3.93028 354.452L3.63027 354.972L90.2306 404.972L90.5306 404.452Z" fill="#3F3F3F"/>
<path d="M176.988 169.712L3.78027 269.712L90.3806 319.712L263.588 219.712L176.988 169.712Z" fill="#A2A2A2"/>
<path d="M90.3807 322.898L263.588 222.898L263.588 219.712L90.3806 319.712L90.3807 322.898Z" fill="#D4D4D4"/>
<path d="M3.78033 272.898L90.3807 322.898L90.3806 319.712L3.78027 269.712L3.78033 272.898Z" fill="#B8B8B8"/>
<path d="M90.3807 322.898L90.2307 323.158L90.3807 323.244L90.5307 323.158L90.3807 322.898ZM3.78033 272.898L3.48033 272.898L3.48033 273.071L3.63033 273.158L3.78033 272.898ZM263.588 222.898L263.738 223.158L263.888 223.071V222.898L263.588 222.898ZM3.78027 269.712L3.63028 269.452L3.48027 269.539L3.48027 269.712L3.78027 269.712ZM176.988 169.712L177.138 169.452L176.988 169.366L176.838 169.452L176.988 169.712ZM263.588 219.712L263.888 219.712V219.539L263.738 219.452L263.588 219.712ZM90.5307 322.638L3.93033 272.638L3.63033 273.158L90.2307 323.158L90.5307 322.638ZM90.5307 323.158L263.738 223.158L263.438 222.638L90.2307 322.638L90.5307 323.158ZM3.93027 269.972L177.138 169.972L176.838 169.452L3.63028 269.452L3.93027 269.972ZM263.738 219.452L177.138 169.452L176.838 169.972L263.438 219.972L263.738 219.452ZM4.08033 272.898L4.08027 269.712L3.48027 269.712L3.48033 272.898L4.08033 272.898ZM90.0806 319.712L90.0807 322.898H90.6807L90.6806 319.712H90.0806ZM263.288 219.712L263.288 222.898L263.888 222.898L263.888 219.712L263.288 219.712ZM90.5306 319.972L263.738 219.972L263.438 219.452L90.2306 319.452L90.5306 319.972ZM90.5306 319.452L3.93028 269.452L3.63027 269.972L90.2306 319.972L90.5306 319.452Z" fill="#3F3F3F"/>
<path d="M90.3807 238.986L90.2807 239.159L90.3807 239.217L90.4807 239.159L90.3807 238.986ZM3.78033 188.986H3.58033L3.58033 189.101L3.68033 189.159L3.78033 188.986ZM263.588 138.986L263.688 139.16L263.788 139.102V138.986L263.588 138.986ZM3.78027 185.8L3.68027 185.627L3.58027 185.684L3.58027 185.8H3.78027ZM176.988 85.8003L177.088 85.6271L176.988 85.5694L176.888 85.6271L176.988 85.8003ZM263.588 135.8L263.788 135.8V135.685L263.688 135.627L263.588 135.8ZM90.4807 238.813L3.88033 188.813L3.68033 189.159L90.2807 239.159L90.4807 238.813ZM3.88033 189.159L6.63944 187.566L6.43945 187.22L3.68033 188.813L3.88033 189.159ZM6.63944 187.566L177.088 89.1595L176.888 88.8131L6.43945 187.22L6.63944 187.566ZM90.4807 239.159L263.688 139.16L263.488 138.813L90.2807 238.813L90.4807 239.159ZM263.688 138.813L260.929 137.22L260.729 137.566L263.488 139.16L263.688 138.813ZM260.929 137.22L177.088 88.8131L176.888 89.1595L260.729 137.566L260.929 137.22ZM90.4806 235.627L6.63945 187.22L6.43944 187.566L90.2806 235.973L90.4806 235.627ZM6.63945 187.22L3.88027 185.627L3.68027 185.973L6.43944 187.566L6.63945 187.22ZM3.88027 185.973L177.088 85.9735L176.888 85.6271L3.68027 185.627L3.88027 185.973ZM90.4806 235.973L260.929 137.566L260.729 137.22L90.2806 235.627L90.4806 235.973ZM260.929 137.566L263.688 135.973L263.488 135.627L260.729 137.22L260.929 137.566ZM263.688 135.627L177.088 85.6271L176.888 85.9735L263.488 135.973L263.688 135.627ZM3.98033 188.986L3.98027 185.8H3.58027L3.58033 188.986H3.98033ZM90.1806 235.8L90.1807 238.986H90.5807L90.5806 235.8H90.1806ZM263.388 135.8L263.388 138.986L263.788 138.986L263.788 135.8L263.388 135.8ZM176.788 85.8003L176.788 88.9863L177.188 88.9863L177.188 85.8003L176.788 85.8003Z" fill="#3F3F3F"/>
<path d="M176.988 2.0791L3.78027 102.079L90.3806 152.079L263.588 52.0791L176.988 2.0791Z" fill="#CECECE"/>
<path d="M90.3807 155.265L263.588 55.2651L263.588 52.0791L90.3806 152.079L90.3807 155.265Z" fill="#D4D4D4"/>
<path d="M3.78033 105.265L90.3807 155.265L90.3806 152.079L3.78027 102.079L3.78033 105.265Z" fill="#B8B8B8"/>
<path d="M90.3807 155.265L90.2307 155.525L90.3807 155.611L90.5307 155.525L90.3807 155.265ZM3.78033 105.265L3.48033 105.265L3.48033 105.438L3.63033 105.525L3.78033 105.265ZM263.588 55.2651L263.738 55.5249L263.888 55.4383V55.2651L263.588 55.2651ZM3.78027 102.079L3.63028 101.819L3.48027 101.906L3.48027 102.079L3.78027 102.079ZM176.988 2.0791L177.138 1.8193L176.988 1.73269L176.838 1.81929L176.988 2.0791ZM263.588 52.0791L263.888 52.0791V51.9059L263.738 51.8193L263.588 52.0791ZM90.5307 155.005L3.93033 105.005L3.63033 105.525L90.2307 155.525L90.5307 155.005ZM90.5307 155.525L263.738 55.5249L263.438 55.0053L90.2307 155.005L90.5307 155.525ZM3.93027 102.339L177.138 2.33891L176.838 1.81929L3.63028 101.819L3.93027 102.339ZM263.738 51.8193L177.138 1.8193L176.838 2.33891L263.438 52.3389L263.738 51.8193ZM4.08033 105.265L4.08027 102.079L3.48027 102.079L3.48033 105.265L4.08033 105.265ZM90.0806 152.079L90.0807 155.265H90.6807L90.6806 152.079H90.0806ZM263.288 52.0791L263.288 55.2651L263.888 55.2651L263.888 52.0791L263.288 52.0791ZM90.5306 152.339L263.738 52.3389L263.438 51.8193L90.2306 151.819L90.5306 152.339ZM90.5306 151.819L3.93028 101.819L3.63027 102.339L90.2306 152.339L90.5306 151.819Z" fill="#3F3F3F"/>
<path d="M1.05273 359.52L87.6197 409.519V153.685L1.05273 103.686V359.52Z" fill="#B8B8B8"/>
<path d="M87.6197 409.519L90.3911 407.919V152.085L87.6197 153.685V409.519Z" fill="#D4D4D4"/>
<path d="M87.6197 153.685L90.3911 152.085L3.82405 102.086L1.05273 103.686L87.6197 153.685Z" fill="#CECECE"/>
<path d="M87.6197 409.519L87.4697 409.779L87.6197 409.865L87.7697 409.779L87.6197 409.519ZM1.05273 359.52H0.752734V359.694L0.902691 359.78L1.05273 359.52ZM90.3911 407.919L90.5411 408.179L90.6911 408.092V407.919H90.3911ZM90.3911 152.085H90.6911V151.911L90.5411 151.825L90.3911 152.085ZM3.82405 102.086L3.97409 101.826L3.82408 101.74L3.67405 101.826L3.82405 102.086ZM1.05273 103.686L0.902738 103.426L0.752734 103.513V103.686H1.05273ZM87.7698 409.259L1.20278 359.261L0.902691 359.78L87.4697 409.779L87.7698 409.259ZM87.7697 409.779L90.5411 408.179L90.2411 407.659L87.4697 409.259L87.7697 409.779ZM87.7697 153.944L90.5411 152.344L90.2411 151.825L87.4697 153.425L87.7697 153.944ZM90.6911 407.919V152.085H90.0911V407.919H90.6911ZM1.35273 359.52V103.686H0.752734V359.52H1.35273ZM90.5411 151.825L3.97409 101.826L3.67401 102.346L90.241 152.344L90.5411 151.825ZM1.20273 103.946L3.97405 102.346L3.67405 101.826L0.902738 103.426L1.20273 103.946ZM87.9197 409.519V153.685H87.3197V409.519H87.9197ZM87.7698 153.425L1.20278 103.426L0.902691 103.946L87.4697 153.944L87.7698 153.425Z" fill="#3F3F3F"/>
</svg>
