<svg width="268" height="670" viewBox="0 0 268 670" fill="none" xmlns="http://www.w3.org/2000/svg">
<path d="M176.997 513.797L263.564 563.796V307.961L176.997 257.963V513.797Z" fill="#939393"/>
<path d="M263.564 563.796L266.335 562.196V306.361L263.564 307.961V563.796Z" fill="#D4D4D4"/>
<path d="M263.564 307.961L266.335 306.361L179.768 256.363L176.997 257.963L263.564 307.961Z" fill="#CECECE"/>
<path d="M263.564 563.796L263.414 564.055L263.564 564.142L263.714 564.055L263.564 563.796ZM176.997 513.797H176.697V513.97L176.847 514.057L176.997 513.797ZM266.335 562.196L266.485 562.456L266.635 562.369V562.196H266.335ZM266.335 306.361H266.635V306.188L266.485 306.102L266.335 306.361ZM179.768 256.363L179.918 256.103L179.768 256.016L179.618 256.103L179.768 256.363ZM176.997 257.963L176.847 257.703L176.697 257.789V257.963H176.997ZM263.714 563.536L177.147 513.537L176.847 514.057L263.414 564.055L263.714 563.536ZM263.714 564.055L266.485 562.456L266.185 561.936L263.414 563.536L263.714 564.055ZM263.714 308.221L266.485 306.621L266.185 306.101L263.414 307.702L263.714 308.221ZM266.635 562.196V306.361H266.035V562.196H266.635ZM177.297 513.797V257.963H176.697V513.797H177.297ZM266.485 306.102L179.918 256.103L179.618 256.622L266.185 306.621L266.485 306.102ZM177.147 258.222L179.918 256.622L179.618 256.103L176.847 257.703L177.147 258.222ZM263.864 563.796V307.961H263.264V563.796H263.864ZM263.714 307.702L177.147 257.703L176.847 258.222L263.414 308.221L263.714 307.702Z" fill="#3F3F3F"/>
<path d="M176.988 510.633L3.78027 610.633L90.3806 660.633L263.588 560.633L176.988 510.633Z" fill="#A2A2A2"/>
<path d="M90.3807 663.819L263.588 563.819L263.588 560.633L90.3806 660.633L90.3807 663.819Z" fill="#D4D4D4"/>
<path d="M3.78033 613.819L90.3807 663.819L90.3806 660.633L3.78027 610.633L3.78033 613.819Z" fill="#B8B8B8"/>
<path d="M90.3807 663.819L90.2307 664.079L90.3807 664.165L90.5307 664.079L90.3807 663.819ZM3.78033 613.819L3.48033 613.819L3.48033 613.992L3.63033 614.079L3.78033 613.819ZM263.588 563.819L263.738 564.079L263.888 563.993V563.819L263.588 563.819ZM3.78027 610.633L3.63028 610.373L3.48027 610.46L3.48027 610.633L3.78027 610.633ZM176.988 510.633L177.138 510.373L176.988 510.287L176.838 510.373L176.988 510.633ZM263.588 560.633L263.888 560.633V560.46L263.738 560.373L263.588 560.633ZM90.5307 663.559L3.93033 613.559L3.63033 614.079L90.2307 664.079L90.5307 663.559ZM90.5307 664.079L263.738 564.079L263.438 563.56L90.2307 663.559L90.5307 664.079ZM3.93027 610.893L177.138 510.893L176.838 510.373L3.63028 610.373L3.93027 610.893ZM263.738 560.373L177.138 510.373L176.838 510.893L263.438 560.893L263.738 560.373ZM4.08033 613.819L4.08027 610.633L3.48027 610.633L3.48033 613.819L4.08033 613.819ZM90.0806 660.633L90.0807 663.819H90.6807L90.6806 660.633H90.0806ZM263.288 560.633L263.288 563.819L263.888 563.819L263.888 560.633L263.288 560.633ZM90.5306 660.893L263.738 560.893L263.438 560.373L90.2306 660.373L90.5306 660.893ZM90.5306 660.373L3.93028 610.373L3.63027 610.893L90.2306 660.893L90.5306 660.373Z" fill="#3F3F3F"/>
<path d="M176.988 258L3.78027 358L90.3806 408L263.588 308L176.988 258Z" fill="#CECECE"/>
<path d="M90.3807 411.186L263.588 311.186L263.588 308L90.3806 408L90.3807 411.186Z" fill="#D4D4D4"/>
<path d="M3.78033 361.186L90.3807 411.186L90.3806 408L3.78027 358L3.78033 361.186Z" fill="#B8B8B8"/>
<path d="M90.3807 411.186L90.2307 411.446L90.3807 411.532L90.5307 411.446L90.3807 411.186ZM3.78033 361.186L3.48033 361.186L3.48033 361.359L3.63033 361.445L3.78033 361.186ZM263.588 311.186L263.738 311.446L263.888 311.359V311.186L263.588 311.186ZM3.78027 358L3.63028 357.74L3.48027 357.826L3.48027 358L3.78027 358ZM176.988 258L177.138 257.74L176.988 257.654L176.838 257.74L176.988 258ZM263.588 308L263.888 308V307.827L263.738 307.74L263.588 308ZM90.5307 410.926L3.93033 360.926L3.63033 361.445L90.2307 411.446L90.5307 410.926ZM90.5307 411.446L263.738 311.446L263.438 310.926L90.2307 410.926L90.5307 411.446ZM3.93027 358.259L177.138 258.26L176.838 257.74L3.63028 357.74L3.93027 358.259ZM263.738 307.74L177.138 257.74L176.838 258.26L263.438 308.26L263.738 307.74ZM4.08033 361.186L4.08027 358L3.48027 358L3.48033 361.186L4.08033 361.186ZM90.0806 408L90.0807 411.186H90.6807L90.6806 408H90.0806ZM263.288 308L263.288 311.186L263.888 311.186L263.888 308L263.288 308ZM90.5306 408.26L263.738 308.26L263.438 307.74L90.2306 407.74L90.5306 408.26ZM90.5306 407.74L3.93028 357.74L3.63027 358.259L90.2306 408.26L90.5306 407.74Z" fill="#3F3F3F"/>
<path d="M1.05273 615.441L87.6197 665.44V409.605L1.05273 359.607V615.441Z" fill="#B8B8B8"/>
<path d="M87.6197 665.44L90.3911 663.84V408.005L87.6197 409.605V665.44Z" fill="#D4D4D4"/>
<path d="M87.6197 409.605L90.3911 408.005L3.82405 358.007L1.05273 359.607L87.6197 409.605Z" fill="#CECECE"/>
<path d="M87.6197 665.44L87.4697 665.7L87.6197 665.786L87.7697 665.7L87.6197 665.44ZM1.05273 615.441H0.752734V615.614L0.902691 615.701L1.05273 615.441ZM90.3911 663.84L90.5411 664.1L90.6911 664.013V663.84H90.3911ZM90.3911 408.005H90.6911V407.832L90.5411 407.746L90.3911 408.005ZM3.82405 358.007L3.97409 357.747L3.82408 357.66L3.67405 357.747L3.82405 358.007ZM1.05273 359.607L0.902738 359.347L0.752734 359.434V359.607H1.05273ZM87.7698 665.18L1.20278 615.181L0.902691 615.701L87.4697 665.7L87.7698 665.18ZM87.7697 665.7L90.5411 664.1L90.2411 663.58L87.4697 665.18L87.7697 665.7ZM87.7697 409.865L90.5411 408.265L90.2411 407.746L87.4697 409.346L87.7697 409.865ZM90.6911 663.84V408.005H90.0911V663.84H90.6911ZM1.35273 615.441V359.607H0.752734V615.441H1.35273ZM90.5411 407.746L3.97409 357.747L3.67401 358.267L90.241 408.265L90.5411 407.746ZM1.20273 359.867L3.97405 358.267L3.67405 357.747L0.902738 359.347L1.20273 359.867ZM87.9197 665.44V409.605H87.3197V665.44H87.9197ZM87.7698 409.346L1.20278 359.347L0.902691 359.867L87.4697 409.865L87.7698 409.346Z" fill="#3F3F3F"/>
<path d="M179.733 619.567L266.336 569.534V311.806L179.733 361.806L179.733 619.567Z" fill="#D4D4D4"/>
<path d="M176.962 360.206L179.733 361.806L266.336 311.806L263.564 310.173L176.962 360.206Z" fill="#CECECE"/>
<path d="M179.733 619.567L179.733 361.806L176.962 360.206L176.962 617.967L179.733 619.567Z" fill="#B8B8B8"/>
<path d="M179.733 619.567L179.583 619.827L179.733 619.914L179.883 619.827L179.733 619.567ZM266.336 569.534L266.486 569.794L266.636 569.707V569.534H266.336ZM266.336 311.806H266.636V311.635L266.488 311.548L266.336 311.806ZM176.962 617.967H176.662L176.662 618.141L176.812 618.227L176.962 617.967ZM176.962 360.206L176.812 359.947L176.662 360.033L176.662 360.206H176.962ZM263.564 310.173L263.717 309.915L263.566 309.826L263.414 309.914L263.564 310.173ZM179.883 619.827L266.486 569.794L266.186 569.274L179.583 619.307L179.883 619.827ZM180.033 619.567L180.033 361.806H179.433L179.433 619.567H180.033ZM266.636 569.567L266.636 311.806H266.036L266.036 569.567H266.636ZM176.812 618.227L179.583 619.827L179.883 619.307L177.112 617.708L176.812 618.227ZM176.812 360.466L179.583 362.066L179.883 361.546L177.112 359.947L176.812 360.466ZM177.262 617.967L177.262 360.206H176.662L176.662 617.967H177.262ZM263.412 310.432L266.183 312.065L266.488 311.548L263.717 309.915L263.412 310.432ZM177.112 360.466L263.715 310.433L263.414 309.914L176.812 359.947L177.112 360.466ZM266.636 569.534V311.806H266.036V569.534H266.636ZM266.186 311.546L179.583 361.546L179.883 362.066L266.486 312.066L266.186 311.546ZM263.415 310.466L266.186 312.066L266.486 311.546L263.715 309.947L263.415 310.466Z" fill="#3F3F3F"/>
<path d="M93.1456 669.569L179.748 619.536V361.808L93.1457 411.808L93.1456 669.569Z" fill="#D4D4D4"/>
<path d="M90.3745 410.208L93.1457 411.808L179.748 361.808L176.977 360.175L90.3745 410.208Z" fill="#CECECE"/>
<path d="M93.1456 669.569L93.1457 411.808L90.3745 410.208L90.3744 667.969L93.1456 669.569Z" fill="#B8B8B8"/>
<path d="M84.4522 416.065L87.2233 417.665V428.574L84.4522 426.974L84.4522 416.065Z" fill="#B8B8B8"/>
<path d="M84.4521 637.66L87.2233 639.26L87.2233 650.305L84.4521 648.705L84.4521 637.66Z" fill="#B8B8B8"/>
<path d="M93.1456 669.569L92.9956 669.829L93.1457 669.916L93.2957 669.829L93.1456 669.569ZM179.748 619.536L179.898 619.796L180.048 619.709V619.536H179.748ZM179.748 361.808H180.048V361.637L179.9 361.55L179.748 361.808ZM90.3744 667.969H90.0744V668.143L90.2244 668.229L90.3744 667.969ZM90.3745 410.208L90.2245 409.949L90.0745 410.035L90.0745 410.208H90.3745ZM176.977 360.175L177.129 359.917L176.978 359.828L176.827 359.916L176.977 360.175ZM87.2233 417.665H87.5233V417.492L87.3733 417.405L87.2233 417.665ZM84.4522 416.065L84.6022 415.805L84.1522 415.546V416.065H84.4522ZM87.2233 428.574L87.0733 428.834L87.5233 429.094V428.574H87.2233ZM84.4522 426.974H84.1522L84.1522 427.147L84.3022 427.234L84.4522 426.974ZM87.2233 639.26H87.5233V639.086L87.3733 639L87.2233 639.26ZM84.4521 637.66L84.6021 637.4L84.1521 637.14L84.1521 637.66H84.4521ZM87.2233 650.305L87.0733 650.565L87.5233 650.825V650.305H87.2233ZM84.4521 648.705H84.1521V648.879L84.3022 648.965L84.4521 648.705ZM93.2957 669.829L179.898 619.796L179.598 619.276L92.9955 669.309L93.2957 669.829ZM93.4456 669.569L93.4457 411.808H92.8457L92.8456 669.569H93.4456ZM180.048 619.569L180.048 361.808H179.448L179.448 619.569H180.048ZM90.2244 668.229L92.9956 669.829L93.2956 669.309L90.5243 667.71L90.2244 668.229ZM90.2245 410.468L92.9957 412.068L93.2957 411.548L90.5245 409.949L90.2245 410.468ZM90.6744 667.969L90.6745 410.208H90.0745L90.0744 667.969H90.6744ZM176.825 360.434L179.596 362.067L179.9 361.55L177.129 359.917L176.825 360.434ZM90.5246 410.468L177.127 360.435L176.827 359.916L90.2245 409.949L90.5246 410.468ZM84.3022 416.325L87.0733 417.925L87.3733 417.405L84.6022 415.805L84.3022 416.325ZM84.3022 427.234L87.0733 428.834L87.3733 428.314L84.6022 426.714L84.3022 427.234ZM84.3022 637.92L87.0733 639.519L87.3733 639L84.6021 637.4L84.3022 637.92ZM84.3022 648.965L87.0733 650.565L87.3733 650.045L84.6021 648.446L84.3022 648.965ZM84.7521 648.705L84.7521 637.66H84.1521L84.1521 648.705H84.7521ZM86.9233 639.26L86.9233 650.305H87.5233L87.5233 639.26H86.9233ZM87.5233 428.574V417.665H86.9233V428.574H87.5233ZM84.1522 416.065L84.1522 426.974H84.7522L84.7522 416.065H84.1522ZM180.048 619.536V361.808H179.448V619.536H180.048ZM179.598 361.548L92.9957 411.548L93.2957 412.068L179.898 362.068L179.598 361.548ZM176.827 360.468L179.598 362.068L179.898 361.548L177.127 359.949L176.827 360.468Z" fill="#3F3F3F"/>
<path d="M176.997 257.876L263.564 307.875V52.0404L176.997 2.04175V257.876Z" fill="#939393"/>
<path d="M263.564 307.875L266.335 306.275V50.4404L263.564 52.0404V307.875Z" fill="#D4D4D4"/>
<path d="M263.564 52.0404L266.335 50.4404L179.768 0.441772L176.997 2.04175L263.564 52.0404Z" fill="#CECECE"/>
<path d="M263.564 307.875L263.414 308.135L263.564 308.221L263.714 308.135L263.564 307.875ZM176.997 257.876H176.697V258.049L176.847 258.136L176.997 257.876ZM266.335 306.275L266.485 306.535L266.635 306.448V306.275H266.335ZM266.335 50.4404H266.635V50.2672L266.485 50.1806L266.335 50.4404ZM179.768 0.441772L179.918 0.18199L179.768 0.0953469L179.618 0.181963L179.768 0.441772ZM176.997 2.04175L176.847 1.78194L176.697 1.86854V2.04175H176.997ZM263.714 307.615L177.147 257.616L176.847 258.136L263.414 308.135L263.714 307.615ZM263.714 308.135L266.485 306.535L266.185 306.015L263.414 307.615L263.714 308.135ZM263.714 52.3002L266.485 50.7002L266.185 50.1806L263.414 51.7806L263.714 52.3002ZM266.635 306.275V50.4404H266.035V306.275H266.635ZM177.297 257.876V2.04175H176.697V257.876H177.297ZM266.485 50.1806L179.918 0.18199L179.618 0.701555L266.185 50.7002L266.485 50.1806ZM177.147 2.30156L179.918 0.701582L179.618 0.181963L176.847 1.78194L177.147 2.30156ZM263.864 307.875V52.0404H263.264V307.875H263.864ZM263.714 51.7806L177.147 1.78197L176.847 2.30153L263.414 52.3002L263.714 51.7806Z" fill="#3F3F3F"/>
<path d="M176.988 254.712L3.78027 354.712L90.3806 404.712L263.588 304.712L176.988 254.712Z" fill="#A2A2A2"/>
<path d="M90.3807 407.898L263.588 307.898L263.588 304.712L90.3806 404.712L90.3807 407.898Z" fill="#D4D4D4"/>
<path d="M3.78033 357.898L90.3807 407.898L90.3806 404.712L3.78027 354.712L3.78033 357.898Z" fill="#B8B8B8"/>
<path d="M90.3807 407.898L90.2307 408.158L90.3807 408.244L90.5307 408.158L90.3807 407.898ZM3.78033 357.898L3.48033 357.898L3.48033 358.071L3.63033 358.158L3.78033 357.898ZM263.588 307.898L263.738 308.158L263.888 308.071V307.898L263.588 307.898ZM3.78027 354.712L3.63028 354.452L3.48027 354.539L3.48027 354.712L3.78027 354.712ZM176.988 254.712L177.138 254.452L176.988 254.366L176.838 254.452L176.988 254.712ZM263.588 304.712L263.888 304.712V304.539L263.738 304.452L263.588 304.712ZM90.5307 407.638L3.93033 357.638L3.63033 358.158L90.2307 408.158L90.5307 407.638ZM90.5307 408.158L263.738 308.158L263.438 307.638L90.2307 407.638L90.5307 408.158ZM3.93027 354.972L177.138 254.972L176.838 254.452L3.63028 354.452L3.93027 354.972ZM263.738 304.452L177.138 254.452L176.838 254.972L263.438 304.972L263.738 304.452ZM4.08033 357.898L4.08027 354.712L3.48027 354.712L3.48033 357.898L4.08033 357.898ZM90.0806 404.712L90.0807 407.898H90.6807L90.6806 404.712H90.0806ZM263.288 304.712L263.288 307.898L263.888 307.898L263.888 304.712L263.288 304.712ZM90.5306 404.972L263.738 304.972L263.438 304.452L90.2306 404.452L90.5306 404.972ZM90.5306 404.452L3.93028 354.452L3.63027 354.972L90.2306 404.972L90.5306 404.452Z" fill="#3F3F3F"/>
<path d="M176.988 169.712L3.78027 269.712L90.3806 319.712L263.588 219.712L176.988 169.712Z" fill="#A2A2A2"/>
<path d="M90.3807 322.898L263.588 222.898L263.588 219.712L90.3806 319.712L90.3807 322.898Z" fill="#D4D4D4"/>
<path d="M3.78033 272.898L90.3807 322.898L90.3806 319.712L3.78027 269.712L3.78033 272.898Z" fill="#B8B8B8"/>
<path d="M90.3807 322.898L90.2307 323.158L90.3807 323.244L90.5307 323.158L90.3807 322.898ZM3.78033 272.898L3.48033 272.898L3.48033 273.071L3.63033 273.158L3.78033 272.898ZM263.588 222.898L263.738 223.158L263.888 223.071V222.898L263.588 222.898ZM3.78027 269.712L3.63028 269.452L3.48027 269.539L3.48027 269.712L3.78027 269.712ZM176.988 169.712L177.138 169.452L176.988 169.366L176.838 169.452L176.988 169.712ZM263.588 219.712L263.888 219.712V219.539L263.738 219.452L263.588 219.712ZM90.5307 322.638L3.93033 272.638L3.63033 273.158L90.2307 323.158L90.5307 322.638ZM90.5307 323.158L263.738 223.158L263.438 222.638L90.2307 322.638L90.5307 323.158ZM3.93027 269.972L177.138 169.972L176.838 169.452L3.63028 269.452L3.93027 269.972ZM263.738 219.452L177.138 169.452L176.838 169.972L263.438 219.972L263.738 219.452ZM4.08033 272.898L4.08027 269.712L3.48027 269.712L3.48033 272.898L4.08033 272.898ZM90.0806 319.712L90.0807 322.898H90.6807L90.6806 319.712H90.0806ZM263.288 219.712L263.288 222.898L263.888 222.898L263.888 219.712L263.288 219.712ZM90.5306 319.972L263.738 219.972L263.438 219.452L90.2306 319.452L90.5306 319.972ZM90.5306 319.452L3.93028 269.452L3.63027 269.972L90.2306 319.972L90.5306 319.452Z" fill="#3F3F3F"/>
<path d="M176.988 2.0791L3.78027 102.079L90.3806 152.079L263.588 52.0791L176.988 2.0791Z" fill="#CECECE"/>
<path d="M90.3807 155.265L263.588 55.2651L263.588 52.0791L90.3806 152.079L90.3807 155.265Z" fill="#D4D4D4"/>
<path d="M3.78033 105.265L90.3807 155.265L90.3806 152.079L3.78027 102.079L3.78033 105.265Z" fill="#B8B8B8"/>
<path d="M90.3807 155.265L90.2307 155.525L90.3807 155.611L90.5307 155.525L90.3807 155.265ZM3.78033 105.265L3.48033 105.265L3.48033 105.438L3.63033 105.525L3.78033 105.265ZM263.588 55.2651L263.738 55.5249L263.888 55.4383V55.2651L263.588 55.2651ZM3.78027 102.079L3.63028 101.819L3.48027 101.906L3.48027 102.079L3.78027 102.079ZM176.988 2.0791L177.138 1.8193L176.988 1.73269L176.838 1.81929L176.988 2.0791ZM263.588 52.0791L263.888 52.0791V51.9059L263.738 51.8193L263.588 52.0791ZM90.5307 155.005L3.93033 105.005L3.63033 105.525L90.2307 155.525L90.5307 155.005ZM90.5307 155.525L263.738 55.5249L263.438 55.0053L90.2307 155.005L90.5307 155.525ZM3.93027 102.339L177.138 2.33891L176.838 1.81929L3.63028 101.819L3.93027 102.339ZM263.738 51.8193L177.138 1.8193L176.838 2.33891L263.438 52.3389L263.738 51.8193ZM4.08033 105.265L4.08027 102.079L3.48027 102.079L3.48033 105.265L4.08033 105.265ZM90.0806 152.079L90.0807 155.265H90.6807L90.6806 152.079H90.0806ZM263.288 52.0791L263.288 55.2651L263.888 55.2651L263.888 52.0791L263.288 52.0791ZM90.5306 152.339L263.738 52.3389L263.438 51.8193L90.2306 151.819L90.5306 152.339ZM90.5306 151.819L3.93028 101.819L3.63027 102.339L90.2306 152.339L90.5306 151.819Z" fill="#3F3F3F"/>
<path d="M1.05273 359.52L87.6197 409.519V153.685L1.05273 103.686V359.52Z" fill="#B8B8B8"/>
<path d="M87.6197 409.519L90.3911 407.919V152.085L87.6197 153.685V409.519Z" fill="#D4D4D4"/>
<path d="M87.6197 153.685L90.3911 152.085L3.82405 102.086L1.05273 103.686L87.6197 153.685Z" fill="#CECECE"/>
<path d="M87.6197 409.519L87.4697 409.779L87.6197 409.865L87.7697 409.779L87.6197 409.519ZM1.05273 359.52H0.752734V359.694L0.902691 359.78L1.05273 359.52ZM90.3911 407.919L90.5411 408.179L90.6911 408.092V407.919H90.3911ZM90.3911 152.085H90.6911V151.911L90.5411 151.825L90.3911 152.085ZM3.82405 102.086L3.97409 101.826L3.82408 101.74L3.67405 101.826L3.82405 102.086ZM1.05273 103.686L0.902738 103.426L0.752734 103.513V103.686H1.05273ZM87.7698 409.259L1.20278 359.261L0.902691 359.78L87.4697 409.779L87.7698 409.259ZM87.7697 409.779L90.5411 408.179L90.2411 407.659L87.4697 409.259L87.7697 409.779ZM87.7697 153.944L90.5411 152.344L90.2411 151.825L87.4697 153.425L87.7697 153.944ZM90.6911 407.919V152.085H90.0911V407.919H90.6911ZM1.35273 359.52V103.686H0.752734V359.52H1.35273ZM90.5411 151.825L3.97409 101.826L3.67401 102.346L90.241 152.344L90.5411 151.825ZM1.20273 103.946L3.97405 102.346L3.67405 101.826L0.902738 103.426L1.20273 103.946ZM87.9197 409.519V153.685H87.3197V409.519H87.9197ZM87.7698 153.425L1.20278 103.426L0.902691 103.946L87.4697 153.944L87.7698 153.425Z" fill="#3F3F3F"/>
<path d="M179.733 364.149L179.583 364.409L179.733 364.495L179.883 364.409L179.733 364.149ZM266.336 314.116L266.486 314.375L266.636 314.289V314.116H266.336ZM266.336 56.3878H266.636V56.2164L266.488 56.1294L266.336 56.3878ZM176.962 362.549H176.662L176.662 362.722L176.812 362.809L176.962 362.549ZM176.962 104.788L176.812 104.528L176.662 104.615L176.662 104.788H176.962ZM263.564 54.7551L263.717 54.4966L263.566 54.4077L263.414 54.4953L263.564 54.7551ZM179.883 364.409L266.486 314.375L266.186 313.856L179.583 363.889L179.883 364.409ZM180.033 364.149L180.033 106.388H179.433L179.433 364.149H180.033ZM266.636 314.149L266.636 56.3878H266.036L266.036 314.149H266.636ZM176.812 362.809L179.583 364.409L179.883 363.889L177.112 362.289L176.812 362.809ZM176.812 105.048L179.583 106.648L179.883 106.128L177.112 104.528L176.812 105.048ZM177.262 362.549L177.262 104.788H176.662L176.662 362.549H177.262ZM263.412 55.0135L266.183 56.6463L266.488 56.1294L263.717 54.4966L263.412 55.0135ZM177.112 105.048L263.715 55.0148L263.414 54.4953L176.812 104.528L177.112 105.048ZM266.636 314.116V56.3878H266.036V314.116H266.636ZM266.186 56.128L179.583 106.128L179.883 106.648L266.486 56.6477L266.186 56.128ZM263.415 55.048L266.186 56.6477L266.486 56.128L263.715 54.5284L263.415 55.048Z" fill="#3F3F3F"/>
<path d="M93.1456 414.151L92.9956 414.411L93.1457 414.497L93.2957 414.411L93.1456 414.151ZM179.748 364.118L179.898 364.377L180.048 364.291V364.118H179.748ZM179.748 106.39H180.048V106.218L179.9 106.131L179.748 106.39ZM90.3744 412.551H90.0744V412.724L90.2244 412.811L90.3744 412.551ZM90.3745 154.79L90.2245 154.53L90.0745 154.617L90.0745 154.79H90.3745ZM176.977 104.757L177.129 104.499L176.978 104.41L176.827 104.497L176.977 104.757ZM87.2233 162.247H87.5233V162.073L87.3733 161.987L87.2233 162.247ZM84.4522 160.647L84.6022 160.387L84.1522 160.127V160.647H84.4522ZM87.2233 173.156L87.0733 173.415L87.5233 173.675V173.156H87.2233ZM84.4522 171.556H84.1522L84.1522 171.729L84.3022 171.816L84.4522 171.556ZM87.2233 383.841H87.5233V383.668L87.3733 383.582L87.2233 383.841ZM84.4521 382.241L84.6021 381.982L84.1521 381.722L84.1521 382.241H84.4521ZM87.2233 394.887L87.0733 395.147L87.5233 395.406V394.887H87.2233ZM84.4521 393.287H84.1521V393.46L84.3022 393.547L84.4521 393.287ZM93.2957 414.411L179.898 364.377L179.598 363.858L92.9955 413.891L93.2957 414.411ZM93.4456 414.151L93.4457 156.39H92.8457L92.8456 414.151H93.4456ZM180.048 364.151L180.048 106.39H179.448L179.448 364.151H180.048ZM90.2244 412.811L92.9956 414.411L93.2956 413.891L90.5243 412.291L90.2244 412.811ZM90.2245 155.05L92.9957 156.65L93.2957 156.13L90.5245 154.53L90.2245 155.05ZM90.6744 412.551L90.6745 154.79H90.0745L90.0744 412.551H90.6744ZM176.825 105.015L179.596 106.648L179.9 106.131L177.129 104.499L176.825 105.015ZM90.5246 155.05L177.127 105.017L176.827 104.497L90.2245 154.53L90.5246 155.05ZM84.3022 160.907L87.0733 162.506L87.3733 161.987L84.6022 160.387L84.3022 160.907ZM84.3022 171.816L87.0733 173.415L87.3733 172.896L84.6022 171.296L84.3022 171.816ZM84.3022 382.501L87.0733 384.101L87.3733 383.582L84.6021 381.982L84.3022 382.501ZM84.3022 393.547L87.0733 395.147L87.3733 394.627L84.6021 393.027L84.3022 393.547ZM84.7521 393.287L84.7521 382.241H84.1521L84.1521 393.287H84.7521ZM86.9233 383.841L86.9233 394.887H87.5233L87.5233 383.841H86.9233ZM87.5233 173.156V162.247H86.9233V173.156H87.5233ZM84.1522 160.647L84.1522 171.556H84.7522L84.7522 160.647H84.1522ZM180.048 364.118V106.39H179.448V364.118H180.048ZM179.598 106.13L92.9957 156.13L93.2957 156.65L179.898 106.65L179.598 106.13ZM176.827 105.05L179.598 106.65L179.898 106.13L177.127 104.53L176.827 105.05Z" fill="#3F3F3F"/>
</svg>
