<svg width="288" height="838" viewBox="0 0 288 838" fill="none" xmlns="http://www.w3.org/2000/svg">
<path d="M196.997 685.797L283.564 735.796V479.961L196.997 429.963V685.797Z" fill="#939393"/>
<path d="M283.564 735.796L286.335 734.196V478.361L283.564 479.961V735.796Z" fill="#D4D4D4"/>
<path d="M283.564 479.961L286.335 478.361L199.768 428.363L196.997 429.963L283.564 479.961Z" fill="#CECECE"/>
<path d="M283.564 735.796L283.414 736.056L283.564 736.142L283.714 736.056L283.564 735.796ZM196.997 685.797H196.697V685.97L196.847 686.057L196.997 685.797ZM286.335 734.196L286.485 734.456L286.635 734.369V734.196H286.335ZM286.335 478.361H286.635V478.188L286.485 478.102L286.335 478.361ZM199.768 428.363L199.918 428.103L199.768 428.016L199.618 428.103L199.768 428.363ZM196.997 429.963L196.847 429.703L196.697 429.79V429.963H196.997ZM283.714 735.536L197.147 685.537L196.847 686.057L283.414 736.056L283.714 735.536ZM283.714 736.056L286.485 734.456L286.185 733.936L283.414 735.536L283.714 736.056ZM283.714 480.221L286.485 478.621L286.185 478.102L283.414 479.702L283.714 480.221ZM286.635 734.196V478.361H286.035V734.196H286.635ZM197.297 685.797V429.963H196.697V685.797H197.297ZM286.485 478.102L199.918 428.103L199.618 428.623L286.185 478.621L286.485 478.102ZM197.147 430.223L199.918 428.623L199.618 428.103L196.847 429.703L197.147 430.223ZM283.864 735.796V479.961H283.264V735.796H283.864ZM283.714 479.702L197.147 429.703L196.847 430.223L283.414 480.221L283.714 479.702Z" fill="#3F3F3F"/>
<path d="M196.988 682.633L23.7803 782.633L110.381 832.633L283.588 732.633L196.988 682.633Z" fill="#A2A2A2"/>
<path d="M110.381 835.819L283.588 735.819L283.588 732.633L110.381 832.633L110.381 835.819Z" fill="#D4D4D4"/>
<path d="M23.7803 785.819L110.381 835.819L110.381 832.633L23.7803 782.633L23.7803 785.819Z" fill="#B8B8B8"/>
<path d="M110.381 835.819L110.231 836.079L110.381 836.165L110.531 836.079L110.381 835.819ZM23.7803 785.819L23.4803 785.819L23.4803 785.992L23.6303 786.079L23.7803 785.819ZM283.588 735.819L283.738 736.079L283.888 735.993V735.819L283.588 735.819ZM23.7803 782.633L23.6303 782.373L23.4803 782.46L23.4803 782.633L23.7803 782.633ZM196.988 682.633L197.138 682.373L196.988 682.287L196.838 682.373L196.988 682.633ZM283.588 732.633L283.888 732.633V732.46L283.738 732.373L283.588 732.633ZM110.531 835.559L23.9303 785.559L23.6303 786.079L110.231 836.079L110.531 835.559ZM110.531 836.079L283.738 736.079L283.438 735.56L110.231 835.559L110.531 836.079ZM23.9303 782.893L197.138 682.893L196.838 682.373L23.6303 782.373L23.9303 782.893ZM283.738 732.373L197.138 682.373L196.838 682.893L283.438 732.893L283.738 732.373ZM24.0803 785.819L24.0803 782.633L23.4803 782.633L23.4803 785.819L24.0803 785.819ZM110.081 832.633L110.081 835.819H110.681L110.681 832.633H110.081ZM283.288 732.633L283.288 735.819L283.888 735.819L283.888 732.633L283.288 732.633ZM110.531 832.893L283.738 732.893L283.438 732.373L110.231 832.373L110.531 832.893ZM110.531 832.373L23.9303 782.373L23.6303 782.893L110.231 832.893L110.531 832.373Z" fill="#3F3F3F"/>
<path d="M196.988 430L23.7803 530L110.381 580L283.588 480L196.988 430Z" fill="#CECECE"/>
<path d="M110.381 583.186L283.588 483.186L283.588 480L110.381 580L110.381 583.186Z" fill="#D4D4D4"/>
<path d="M23.7803 533.186L110.381 583.186L110.381 580L23.7803 530L23.7803 533.186Z" fill="#B8B8B8"/>
<path d="M110.381 583.186L110.231 583.446L110.381 583.532L110.531 583.446L110.381 583.186ZM23.7803 533.186L23.4803 533.186L23.4803 533.359L23.6303 533.445L23.7803 533.186ZM283.588 483.186L283.738 483.446L283.888 483.359V483.186L283.588 483.186ZM23.7803 530L23.6303 529.74L23.4803 529.826L23.4803 530L23.7803 530ZM196.988 430L197.138 429.74L196.988 429.654L196.838 429.74L196.988 430ZM283.588 480L283.888 480V479.827L283.738 479.74L283.588 480ZM110.531 582.926L23.9303 532.926L23.6303 533.445L110.231 583.446L110.531 582.926ZM110.531 583.446L283.738 483.446L283.438 482.926L110.231 582.926L110.531 583.446ZM23.9303 530.259L197.138 430.26L196.838 429.74L23.6303 529.74L23.9303 530.259ZM283.738 479.74L197.138 429.74L196.838 430.26L283.438 480.26L283.738 479.74ZM24.0803 533.186L24.0803 530L23.4803 530L23.4803 533.186L24.0803 533.186ZM110.081 580L110.081 583.186H110.681L110.681 580H110.081ZM283.288 480L283.288 483.186L283.888 483.186L283.888 480L283.288 480ZM110.531 580.26L283.738 480.26L283.438 479.74L110.231 579.74L110.531 580.26ZM110.531 579.74L23.9303 529.74L23.6303 530.259L110.231 580.26L110.531 579.74Z" fill="#3F3F3F"/>
<path d="M21.0527 787.441L107.62 837.44V581.605L21.0527 531.607V787.441Z" fill="#B8B8B8"/>
<path d="M107.62 837.44L110.391 835.84V580.005L107.62 581.605V837.44Z" fill="#D4D4D4"/>
<path d="M107.62 581.605L110.391 580.005L23.8241 530.007L21.0527 531.607L107.62 581.605Z" fill="#CECECE"/>
<path d="M107.62 837.44L107.47 837.7L107.62 837.786L107.77 837.7L107.62 837.44ZM21.0527 787.441H20.7527V787.614L20.9027 787.701L21.0527 787.441ZM110.391 835.84L110.541 836.1L110.691 836.013V835.84H110.391ZM110.391 580.005H110.691V579.832L110.541 579.746L110.391 580.005ZM23.8241 530.007L23.9741 529.747L23.8241 529.66L23.6741 529.747L23.8241 530.007ZM21.0527 531.607L20.9027 531.347L20.7527 531.434V531.607H21.0527ZM107.77 837.18L21.2028 787.181L20.9027 787.701L107.47 837.7L107.77 837.18ZM107.77 837.7L110.541 836.1L110.241 835.58L107.47 837.18L107.77 837.7ZM107.77 581.865L110.541 580.265L110.241 579.746L107.47 581.346L107.77 581.865ZM110.691 835.84V580.005H110.091V835.84H110.691ZM21.3527 787.441V531.607H20.7527V787.441H21.3527ZM110.541 579.746L23.9741 529.747L23.674 530.267L110.241 580.265L110.541 579.746ZM21.2027 531.867L23.974 530.267L23.6741 529.747L20.9027 531.347L21.2027 531.867ZM107.92 837.44V581.605H107.32V837.44H107.92ZM107.77 581.346L21.2028 531.347L20.9027 531.867L107.47 581.865L107.77 581.346Z" fill="#3F3F3F"/>
<path d="M196.997 429.876L283.564 479.875V224.041L196.997 174.042V429.876Z" fill="#939393"/>
<path d="M283.564 479.875L286.335 478.275V222.441L283.564 224.041V479.875Z" fill="#D4D4D4"/>
<path d="M283.564 224.041L286.335 222.441L199.768 172.442L196.997 174.042L283.564 224.041Z" fill="#CECECE"/>
<path d="M283.564 479.875L283.414 480.135L283.564 480.221L283.714 480.135L283.564 479.875ZM196.997 429.876H196.697V430.049L196.847 430.136L196.997 429.876ZM286.335 478.275L286.485 478.535L286.635 478.448V478.275H286.335ZM286.335 222.441H286.635V222.267L286.485 222.181L286.335 222.441ZM199.768 172.442L199.918 172.182L199.768 172.095L199.618 172.182L199.768 172.442ZM196.997 174.042L196.847 173.782L196.697 173.869V174.042H196.997ZM283.714 479.615L197.147 429.617L196.847 430.136L283.414 480.135L283.714 479.615ZM283.714 480.135L286.485 478.535L286.185 478.015L283.414 479.615L283.714 480.135ZM283.714 224.3L286.485 222.7L286.185 222.181L283.414 223.781L283.714 224.3ZM286.635 478.275V222.441H286.035V478.275H286.635ZM197.297 429.876V174.042H196.697V429.876H197.297ZM286.485 222.181L199.918 172.182L199.618 172.702L286.185 222.7L286.485 222.181ZM197.147 174.302L199.918 172.702L199.618 172.182L196.847 173.782L197.147 174.302ZM283.864 479.875V224.041H283.264V479.875H283.864ZM283.714 223.781L197.147 173.782L196.847 174.302L283.414 224.3L283.714 223.781Z" fill="#3F3F3F"/>
<path d="M196.988 426.712L23.7803 526.712L110.381 576.712L283.588 476.712L196.988 426.712Z" fill="#A2A2A2"/>
<path d="M110.381 579.898L283.588 479.898L283.588 476.712L110.381 576.712L110.381 579.898Z" fill="#D4D4D4"/>
<path d="M23.7803 529.898L110.381 579.898L110.381 576.712L23.7803 526.712L23.7803 529.898Z" fill="#B8B8B8"/>
<path d="M110.381 579.898L110.231 580.158L110.381 580.245L110.531 580.158L110.381 579.898ZM23.7803 529.898L23.4803 529.898L23.4803 530.071L23.6303 530.158L23.7803 529.898ZM283.588 479.898L283.738 480.158L283.888 480.072V479.898L283.588 479.898ZM23.7803 526.712L23.6303 526.452L23.4803 526.539L23.4803 526.712L23.7803 526.712ZM196.988 426.712L197.138 426.453L196.988 426.366L196.838 426.453L196.988 426.712ZM283.588 476.712L283.888 476.712V476.539L283.738 476.453L283.588 476.712ZM110.531 579.638L23.9303 529.638L23.6303 530.158L110.231 580.158L110.531 579.638ZM110.531 580.158L283.738 480.158L283.438 479.639L110.231 579.638L110.531 580.158ZM23.9303 526.972L197.138 426.972L196.838 426.453L23.6303 526.452L23.9303 526.972ZM283.738 476.453L197.138 426.453L196.838 426.972L283.438 476.972L283.738 476.453ZM24.0803 529.898L24.0803 526.712L23.4803 526.712L23.4803 529.898L24.0803 529.898ZM110.081 576.712L110.081 579.898H110.681L110.681 576.712H110.081ZM283.288 476.712L283.288 479.898L283.888 479.898L283.888 476.712L283.288 476.712ZM110.531 576.972L283.738 476.972L283.438 476.453L110.231 576.452L110.531 576.972ZM110.531 576.452L23.9303 526.452L23.6303 526.972L110.231 576.972L110.531 576.452Z" fill="#3F3F3F"/>
<path d="M196.988 174.079L23.7803 274.079L110.381 324.079L283.588 224.079L196.988 174.079Z" fill="#CECECE"/>
<path d="M110.381 327.265L283.588 227.265L283.588 224.079L110.381 324.079L110.381 327.265Z" fill="#D4D4D4"/>
<path d="M23.7803 277.265L110.381 327.265L110.381 324.079L23.7803 274.079L23.7803 277.265Z" fill="#B8B8B8"/>
<path d="M110.381 327.265L110.231 327.525L110.381 327.611L110.531 327.525L110.381 327.265ZM23.7803 277.265L23.4803 277.265L23.4803 277.438L23.6303 277.525L23.7803 277.265ZM283.588 227.265L283.738 227.525L283.888 227.438V227.265L283.588 227.265ZM23.7803 274.079L23.6303 273.819L23.4803 273.906L23.4803 274.079L23.7803 274.079ZM196.988 174.079L197.138 173.819L196.988 173.733L196.838 173.819L196.988 174.079ZM283.588 224.079L283.888 224.079V223.906L283.738 223.819L283.588 224.079ZM110.531 327.005L23.9303 277.005L23.6303 277.525L110.231 327.525L110.531 327.005ZM110.531 327.525L283.738 227.525L283.438 227.005L110.231 327.005L110.531 327.525ZM23.9303 274.339L197.138 174.339L196.838 173.819L23.6303 273.819L23.9303 274.339ZM283.738 223.819L197.138 173.819L196.838 174.339L283.438 224.339L283.738 223.819ZM24.0803 277.265L24.0803 274.079L23.4803 274.079L23.4803 277.265L24.0803 277.265ZM110.081 324.079L110.081 327.265H110.681L110.681 324.079H110.081ZM283.288 224.079L283.288 227.265L283.888 227.265L283.888 224.079L283.288 224.079ZM110.531 324.339L283.738 224.339L283.438 223.819L110.231 323.819L110.531 324.339ZM110.531 323.819L23.9303 273.819L23.6303 274.339L110.231 324.339L110.531 323.819Z" fill="#3F3F3F"/>
<path d="M21.0527 531.52L107.62 581.519V325.685L21.0527 275.686V531.52Z" fill="#B8B8B8"/>
<path d="M107.62 581.519L110.391 579.919V324.085L107.62 325.685V581.519Z" fill="#D4D4D4"/>
<path d="M107.62 325.685L110.391 324.085L23.8241 274.086L21.0527 275.686L107.62 325.685Z" fill="#CECECE"/>
<path d="M107.62 581.519L107.47 581.779L107.62 581.865L107.77 581.779L107.62 581.519ZM21.0527 531.52H20.7527V531.694L20.9027 531.78L21.0527 531.52ZM110.391 579.919L110.541 580.179L110.691 580.092V579.919H110.391ZM110.391 324.085H110.691V323.911L110.541 323.825L110.391 324.085ZM23.8241 274.086L23.9741 273.826L23.8241 273.74L23.6741 273.826L23.8241 274.086ZM21.0527 275.686L20.9027 275.426L20.7527 275.513V275.686H21.0527ZM107.77 581.259L21.2028 531.261L20.9027 531.78L107.47 581.779L107.77 581.259ZM107.77 581.779L110.541 580.179L110.241 579.659L107.47 581.259L107.77 581.779ZM107.77 325.944L110.541 324.344L110.241 323.825L107.47 325.425L107.77 325.944ZM110.691 579.919V324.085H110.091V579.919H110.691ZM21.3527 531.52V275.686H20.7527V531.52H21.3527ZM110.541 323.825L23.9741 273.826L23.674 274.346L110.241 324.344L110.541 323.825ZM21.2027 275.946L23.974 274.346L23.6741 273.826L20.9027 275.426L21.2027 275.946ZM107.92 581.519V325.685H107.32V581.519H107.92ZM107.77 325.425L21.2028 275.426L20.9027 275.946L107.47 325.944L107.77 325.425Z" fill="#3F3F3F"/>
<path d="M107.585 836.862L107.435 837.121L107.585 837.208L107.735 837.121L107.585 836.862ZM21 786.874H20.7V787.047L20.85 787.133L21 786.874ZM110.356 835.262L110.506 835.521L110.656 835.435V835.262H110.356ZM110.356 152.592H110.656V152.418L110.506 152.332L110.356 152.592ZM23.7713 102.604L23.9213 102.344L23.7713 102.257L23.6213 102.344L23.7713 102.604ZM21 104.203L20.85 103.944L20.7 104.03V104.203H21ZM107.885 836.862V833.662H107.285V836.862H107.885ZM107.885 833.662V154.192H107.285V833.662H107.885ZM107.735 836.602L21.15 786.614L20.85 787.133L107.435 837.121L107.735 836.602ZM107.735 837.121L110.506 835.521L110.206 835.002L107.435 836.602L107.735 837.121ZM21.15 787.133L23.9213 785.533L23.6213 785.014L20.85 786.614L21.15 787.133ZM107.735 154.451L110.506 152.851L110.206 152.332L107.435 153.932L107.735 154.451ZM110.656 835.262V152.592H110.056V835.262H110.656ZM24.0713 785.273V105.803H23.4713V785.273H24.0713ZM24.0713 105.803V102.604H23.4713V105.803H24.0713ZM21.3 786.874V104.203H20.7V786.874H21.3ZM110.506 835.002L107.735 833.402L107.435 833.921L110.206 835.521L110.506 835.002ZM107.735 833.402L23.9213 785.014L23.6213 785.533L107.435 833.921L107.735 833.402ZM110.506 152.332L23.9213 102.344L23.6213 102.863L110.206 152.851L110.506 152.332ZM107.735 153.932L23.9213 105.544L23.6213 106.063L107.435 154.451L107.735 153.932ZM23.9213 105.544L21.15 103.944L20.85 104.463L23.6213 106.063L23.9213 105.544ZM21.15 104.463L23.9213 102.863L23.6213 102.344L20.85 103.944L21.15 104.463Z" fill="#3F3F3F"/>
<path d="M283.574 735.258L283.424 735.518L283.574 735.604L283.724 735.518L283.574 735.258ZM196.989 685.27H196.689V685.443L196.839 685.53L196.989 685.27ZM286.345 733.658L286.495 733.918L286.645 733.831V733.658H286.345ZM286.345 50.988H286.645V50.8148L286.495 50.7282L286.345 50.988ZM199.761 1L199.911 0.74019L199.761 0.653592L199.611 0.740191L199.761 1ZM196.989 2.59998L196.839 2.34017L196.689 2.42677V2.59998H196.989ZM283.874 735.258V732.058H283.274V735.258H283.874ZM283.874 732.058V52.5881H283.274V732.058H283.874ZM283.724 734.998L197.139 685.01L196.839 685.53L283.424 735.518L283.724 734.998ZM283.724 735.518L286.495 733.918L286.195 733.398L283.424 734.998L283.724 735.518ZM197.139 685.53L199.911 683.93L199.611 683.41L196.839 685.01L197.139 685.53ZM283.724 52.8479L286.495 51.2478L286.195 50.7282L283.424 52.3283L283.724 52.8479ZM286.645 733.658V50.988H286.045V733.658H286.645ZM200.061 683.67V4.19995H199.461V683.67H200.061ZM200.061 4.19995V1H199.461V4.19995H200.061ZM197.289 685.27V2.59998H196.689V685.27H197.289ZM286.495 733.398L283.724 731.798L283.424 732.318L286.195 733.918L286.495 733.398ZM283.724 731.798L199.911 683.41L199.611 683.93L283.424 732.318L283.724 731.798ZM286.495 50.7282L199.911 0.74019L199.611 1.25981L286.195 51.2478L286.495 50.7282ZM283.724 52.3283L199.911 3.94014L199.611 4.45976L283.424 52.8479L283.724 52.3283ZM199.911 3.94014L197.139 2.34017L196.839 2.85979L199.611 4.45976L199.911 3.94014ZM197.139 2.85979L199.911 1.25981L199.611 0.740191L196.839 2.34017L197.139 2.85979Z" fill="#3F3F3F"/>
<path d="M110.375 155.788L110.225 156.048L110.375 156.135L110.525 156.048L110.375 155.788ZM23.7745 105.788L23.4745 105.788L23.4745 105.961L23.6245 106.048L23.7745 105.788ZM283.583 55.7886L283.733 56.0484L283.883 55.9618V55.7886L283.583 55.7886ZM23.7744 102.602L23.6244 102.342L23.4744 102.429L23.4744 102.602L23.7744 102.602ZM196.982 2.60254L197.132 2.34273L196.982 2.25613L196.832 2.34273L196.982 2.60254ZM283.582 52.6025L283.882 52.6025V52.4293L283.732 52.3427L283.582 52.6025ZM110.525 155.528L23.9245 105.528L23.6245 106.048L110.225 156.048L110.525 155.528ZM23.9245 106.048L26.6836 104.455L26.3836 103.935L23.6245 105.528L23.9245 106.048ZM26.6836 104.455L197.132 6.04837L196.832 5.52875L26.3836 103.935L26.6836 104.455ZM110.525 156.048L283.733 56.0484L283.433 55.5287L110.225 155.528L110.525 156.048ZM283.733 55.5287L280.973 53.9357L280.673 54.4553L283.433 56.0484L283.733 55.5287ZM280.973 53.9357L197.132 5.52875L196.832 6.04837L280.673 54.4553L280.973 53.9357ZM110.525 152.342L26.6836 103.935L26.3836 104.455L110.225 152.862L110.525 152.342ZM26.6836 103.935L23.9244 102.342L23.6244 102.862L26.3836 104.455L26.6836 103.935ZM23.9244 102.862L197.132 2.86235L196.832 2.34273L23.6244 102.342L23.9244 102.862ZM110.525 152.862L280.973 54.4553L280.673 53.9357L110.225 152.342L110.525 152.862ZM280.973 54.4553L283.732 52.8623L283.432 52.3427L280.673 53.9357L280.973 54.4553ZM283.732 52.3427L197.132 2.34273L196.832 2.86234L283.432 52.8623L283.732 52.3427ZM24.0745 105.788L24.0744 102.602L23.4744 102.602L23.4745 105.788L24.0745 105.788ZM110.075 152.602L110.075 155.788H110.675L110.675 152.602H110.075ZM283.283 52.6025L283.283 55.7886L283.883 55.7886L283.882 52.6025L283.283 52.6025ZM196.682 2.60254L196.682 5.78857L197.282 5.78855L197.282 2.60253L196.682 2.60254Z" fill="#3F3F3F"/>
<path d="M110.375 240.719L110.225 240.979L110.375 241.065L110.525 240.979L110.375 240.719ZM23.7745 190.719L23.4745 190.719L23.4745 190.892L23.6245 190.979L23.7745 190.719ZM283.583 140.719L283.733 140.979L283.883 140.892V140.719L283.583 140.719ZM23.7744 187.533L23.6244 187.273L23.4744 187.36L23.4744 187.533L23.7744 187.533ZM196.982 87.5332L197.132 87.2734L196.982 87.1868L196.832 87.2734L196.982 87.5332ZM283.582 137.533L283.882 137.533V137.36L283.732 137.273L283.582 137.533ZM110.525 240.459L23.9245 190.459L23.6245 190.979L110.225 240.979L110.525 240.459ZM23.9245 190.979L26.6836 189.386L26.3836 188.866L23.6245 190.459L23.9245 190.979ZM26.6836 189.386L197.132 90.979L196.832 90.4594L26.3836 188.866L26.6836 189.386ZM110.525 240.979L283.733 140.979L283.433 140.459L110.225 240.459L110.525 240.979ZM283.733 140.459L280.973 138.866L280.673 139.386L283.433 140.979L283.733 140.459ZM280.973 138.866L197.132 90.4594L196.832 90.979L280.673 139.386L280.973 138.866ZM110.525 237.273L26.6836 188.866L26.3836 189.386L110.225 237.793L110.525 237.273ZM26.6836 188.866L23.9244 187.273L23.6244 187.793L26.3836 189.386L26.6836 188.866ZM23.9244 187.793L197.132 87.793L196.832 87.2734L23.6244 187.273L23.9244 187.793ZM110.525 237.793L280.973 139.386L280.673 138.866L110.225 237.273L110.525 237.793ZM280.973 139.386L283.732 137.793L283.432 137.273L280.673 138.866L280.973 139.386ZM283.732 137.273L197.132 87.2734L196.832 87.793L283.432 137.793L283.732 137.273ZM24.0745 190.719L24.0744 187.533L23.4744 187.533L23.4745 190.719L24.0745 190.719ZM110.075 237.533L110.075 240.719H110.675L110.675 237.533H110.075ZM283.283 137.533L283.283 140.719L283.883 140.719L283.882 137.533L283.283 137.533ZM196.682 87.5332L196.682 90.7192L197.282 90.7192L197.282 87.5332L196.682 87.5332Z" fill="#3F3F3F"/>
<path d="M110.375 835.234L110.225 835.493L110.375 835.58L110.525 835.493L110.375 835.234ZM23.7745 785.233L23.4745 785.234L23.4745 785.407L23.6245 785.493L23.7745 785.233ZM283.583 735.234L283.733 735.494L283.883 735.407V735.234L283.583 735.234ZM23.7744 782.048L23.6244 781.788L23.4744 781.874L23.4744 782.048L23.7744 782.048ZM196.982 682.048L197.132 681.788L196.982 681.701L196.832 681.788L196.982 682.048ZM283.582 732.048L283.882 732.048V731.875L283.732 731.788L283.582 732.048ZM110.525 834.974L23.9245 784.974L23.6245 785.493L110.225 835.493L110.525 834.974ZM23.9245 785.493L26.6836 783.9L26.3836 783.381L23.6245 784.974L23.9245 785.493ZM26.6836 783.9L197.132 685.494L196.832 684.974L26.3836 783.381L26.6836 783.9ZM110.525 835.493L283.733 735.494L283.433 734.974L110.225 834.974L110.525 835.493ZM283.733 734.974L280.973 733.381L280.673 733.901L283.433 735.494L283.733 734.974ZM280.973 733.381L197.132 684.974L196.832 685.494L280.673 733.901L280.973 733.381ZM110.525 831.788L26.6836 783.381L26.3836 783.9L110.225 832.307L110.525 831.788ZM26.6836 783.381L23.9244 781.788L23.6244 782.307L26.3836 783.9L26.6836 783.381ZM23.9244 782.307L197.132 682.308L196.832 681.788L23.6244 781.788L23.9244 782.307ZM110.525 832.307L280.973 733.901L280.673 733.381L110.225 831.788L110.525 832.307ZM280.973 733.901L283.732 732.308L283.432 731.788L280.673 733.381L280.973 733.901ZM283.732 731.788L197.132 681.788L196.832 682.308L283.432 732.308L283.732 731.788ZM24.0745 785.233L24.0744 782.047L23.4744 782.048L23.4745 785.234L24.0745 785.233ZM110.075 832.048L110.075 835.234H110.675L110.675 832.048H110.075ZM283.283 732.048L283.283 735.234L283.883 735.234L283.882 732.048L283.283 732.048ZM196.682 682.048L196.682 685.234L197.282 685.234L197.282 682.048L196.682 682.048Z" fill="#3F3F3F"/>
</svg>
