<svg width="36" height="53" viewBox="0 0 36 53" fill="none" xmlns="http://www.w3.org/2000/svg">
<g clip-path="url(#clip0_6_1539)">
<path d="M23.5052 33.1242L34.6103 39.5358L12.2647 52.437L1.15953 46.0255L23.5052 33.1242Z" fill="#9E9A8E" stroke="#4C4B42" stroke-width="1.3" stroke-linejoin="bevel"/>
<path d="M1.15954 13.2019L12.2646 19.6135L12.2646 52.4531L1.15952 46.0416L1.15954 13.2019Z" fill="#9E9A8E" stroke="#4C4B42" stroke-width="1.3" stroke-linejoin="bevel"/>
<path d="M23.5052 0.305446L34.6103 6.71699L34.6104 39.5566L23.5052 33.1451L23.5052 0.305446Z" fill="#9E9A8E" stroke="#4C4B42" stroke-width="1.3" stroke-linejoin="bevel"/>
<path d="M23.5057 0.300987L34.6108 6.71254L12.2651 19.6138L1.16002 13.2022L23.5057 0.300987Z" fill="#9E9A8E" stroke="#4C4B42" stroke-width="1.3" stroke-linejoin="bevel"/>
<path d="M12.2703 41.2017L12.2704 52.5879L34.6108 39.5163L34.6107 28.1302L12.2703 41.2017Z" fill="#9E9A8E" stroke="#4C4B42" stroke-width="1.3" stroke-linejoin="bevel"/>
<path d="M12.2703 30.5855L12.2704 41.9717L34.6108 28.9001L34.6107 17.514L12.2703 30.5855Z" fill="#9E9A8E" stroke="#4C4B42" stroke-width="1.3" stroke-linejoin="bevel"/>
<path d="M12.2703 19.5377L12.2704 30.9238L34.6108 17.8523L34.6107 6.46617L12.2703 19.5377Z" fill="#9E9A8E" stroke="#4C4B42" stroke-width="1.3" stroke-linejoin="bevel"/>
<path d="M21.6934 16.5451L21.6934 18.3262L25.188 16.2815L25.188 14.5004L21.6934 16.5451Z" fill="#9E9A8E" stroke="#4C4B42" stroke-width="1.3" stroke-linejoin="bevel"/>
<path d="M21.6934 27.5451L21.6934 29.3262L25.188 27.2815L25.188 25.5004L21.6934 27.5451Z" fill="#9E9A8E" stroke="#4C4B42" stroke-width="1.3" stroke-linejoin="bevel"/>
<path d="M21.6934 38.5451L21.6934 40.3262L25.188 38.2815L25.188 36.5004L21.6934 38.5451Z" fill="#9E9A8E" stroke="#4C4B42" stroke-width="1.3" stroke-linejoin="bevel"/>
<path d="M21.6934 21.5451L21.6934 23.3262L25.188 21.2815L25.188 19.5004L21.6934 21.5451Z" fill="#9E9A8E" stroke="#4C4B42" stroke-width="1.3" stroke-linejoin="bevel"/>
<path d="M21.6934 32.5451L21.6934 34.3262L25.188 32.2815L25.188 30.5004L21.6934 32.5451Z" fill="#9E9A8E" stroke="#4C4B42" stroke-width="1.3" stroke-linejoin="bevel"/>
<path d="M21.6934 43.5451L21.6934 45.3262L25.188 43.2815L25.188 41.5004L21.6934 43.5451Z" fill="#9E9A8E" stroke="#4C4B42" stroke-width="1.3" stroke-linejoin="bevel"/>
<path d="M12 25.5L34.5 12.5" stroke="#4C4B42"/>
<path d="M12 36.5L34.5 23.5" stroke="#4C4B42"/>
<path d="M12 47.5L34.5 34.5" stroke="#4C4B42"/>
</g>
<defs>
<clipPath id="clip0_6_1539">
<rect width="35" height="52.8723" fill="white" transform="translate(0.5 0.0634766)"/>
</clipPath>
</defs>
</svg>
